<svg id="Laag_1" data-name="Laag 1" xmlns="http://www.w3.org/2000/svg" viewBox="0 0 250 250"><defs><style>.cls-1{fill:#32214b;}.cls-2{fill:#9a81bb;}.cls-3{fill:#05050b;}.cls-4{fill:#56476a;}.cls-5{fill:#f8f7fa;}</style></defs><path class="cls-1" d="M47.13,9.06c5.92-.35,7.74,2.65,7.59,8.26-.18,6.88.36,13.77.59,20.66,1,2.78,3.43,2.75,5.77,2.75H188.62c2.67,0,5.43.17,6.6-3.07,0-7.3.49-14.64,0-21.91-.49-6.88,2.64-8,8.27-6.7-.2.73-.39,1.47-.59,2.2a78.82,78.82,0,0,0,0,33.08c.16.69.31,1.37.46,2.06a9.77,9.77,0,0,0-.16,1.79l-155.93,0a8.9,8.9,0,0,0-.17-1.79l.44-2a76.84,76.84,0,0,0,0-33.17Z"/><path class="cls-2" d="M66.83,183.19c-12.92.11-23-9.66-23.13-22.31-.1-12.33,10.5-23.32,22.57-23.42,12.33-.1,22.92,10.35,23.09,22.8A22.35,22.35,0,0,1,66.83,183.19Zm-11.95-23c.35,8,4.9,12.3,12,12.15,6.46-.14,11.61-4.46,11.83-11.23.24-7.21-4.37-11.88-11.7-12.18C59.43,148.61,55.63,153.21,54.88,160.18Z"/><path class="cls-2" d="M66.39,124.93a22.73,22.73,0,0,1-22.68-23c0-12.25,10.61-22.75,23.06-22.82C79,79.07,89.44,89.75,89.36,102.28A22.7,22.7,0,0,1,66.39,124.93ZM55,100.4c-.35,8.84,4.36,12.9,10,14.53s14.45-7.19,13.67-13.12c-.84-6.45-4.31-11.12-11.66-11.15C59.43,90.62,55.49,94.6,55,100.4Z"/><path class="cls-2" d="M147.51,102.41c-.13,12.86-10,22.54-22.92,22.49-11.58,0-22.61-10.78-22.76-22.16-.16-12.6,10.9-23.71,23.49-23.6S147.64,89.47,147.51,102.41Zm-34.48.35c1.2,5.72,3.92,11.75,11.17,11.82,6.82.06,12.19-4.44,12.51-11.64.31-7-3.39-12-11.22-12.28C117.88,90.45,114,94.54,113,102.76Z"/><path class="cls-2" d="M125,183.15c-12.73,0-23.32-10.31-23.19-22.53.13-12.07,11-23,23-23.23,12.31-.23,22.66,10.27,22.64,23C147.49,173.57,138,183.16,125,183.15Zm-11.93-23.3c.2,8.13,4.76,12.29,11.82,12.57,6.83.28,11.49-4,11.83-10.94.35-7.2-3.5-12.24-11.12-12.61S114.21,153.05,113.11,159.85Z"/><path class="cls-2" d="M183.71,197.19c12.78-.6,21.41,7.27,22,20.05.64,14-7.49,23.45-20.67,24-13.64.61-23.48-7.92-23.93-20.78C160.56,205.65,168.05,197.93,183.71,197.19Zm-12.37,21.9c.9,6.74,4.48,11.54,12,11.62,6.93.07,11.36-4.17,11.78-11,.45-7.36-3.88-12.13-11.18-12.52S172.49,211.41,171.34,219.09Z"/><path class="cls-2" d="M124.86,196.5c13.38,0,22.61,9.11,22.65,22.38s-9.3,22.5-22.55,22.54c-12.82,0-23.07-9.91-23.11-22.42S112.05,196.5,124.86,196.5Zm-1.15,10.39c-5.86,1.35-10.77,4.73-10.43,12.48.31,7,4.38,11.29,11.39,11.37,7.47.08,12.11-4.38,12.07-11.76C136.71,211.77,132.5,207.32,123.71,206.89Z"/><path class="cls-2" d="M161.08,160.27c0-12.81,10-23,22.49-22.86s22.16,10.28,22.14,23.27c0,13.4-9.11,22.5-22.44,22.47C170.35,183.12,161.1,173.58,161.08,160.27Zm34.29-1.19c-1.48-6.1-5.18-10.82-12.82-10.2-6.85.55-11.1,4.63-11,11.75.17,7.55,4.86,12,12.07,11.79S195,167.46,195.37,159.08Z"/><path class="cls-2" d="M89.37,218.52c.22,12.74-9.68,22.7-22.66,22.79s-23.06-9.62-23-22.42A22.28,22.28,0,0,1,65.84,196.5C78.84,196.22,89.14,205.85,89.37,218.52ZM65.2,206.9c-6,1.52-10.71,5.16-10.16,12.84.5,7,4.66,11.16,11.74,11,7.49-.17,12.07-4.8,11.91-12.07S73.6,207.47,65.2,206.9Z"/><path class="cls-2" d="M205.71,102.43c0,12.89-9.79,22.6-22.59,22.48s-22.06-9.89-22-23.11c0-12.88,10-22.87,22.59-22.67S205.74,89.42,205.71,102.43Zm-10.46-1.38c-.82-5.94-4.39-10.43-12-10.36-7,.06-11.08,3.91-11.66,10.86-.62,7.46,4.62,11.82,10.29,14C187,117.55,195.17,108.62,195.25,101.05Z"/><path class="cls-3" d="M195.22,37.67c-1.17,3.24-3.93,3.07-6.6,3.07H61.08c-2.34,0-4.73,0-5.77-2.75Z"/><path class="cls-3" d="M47.56,44.36c-.15.67-.29,1.34-.44,2a5.72,5.72,0,0,1-1.95.41q-.26-17.24-.49-34.46c0-1.65.08-3.35,2.45-3.27.16.71.31,1.42.47,2.12Q47.57,27.77,47.56,44.36Z"/><path class="cls-3" d="M203.38,46.4c-.15-.69-.3-1.37-.46-2.06q0-16.53,0-33.08c.2-.73.39-1.47.59-2.2,5,4.43,1.77,10.18,2.14,15.24.53,7.43-.18,15-.35,22.44A5.26,5.26,0,0,1,203.38,46.4Z"/><path class="cls-4" d="M45.17,46.79a5.72,5.72,0,0,0,1.95-.41,8.9,8.9,0,0,1,.17,1.79C46,48.61,45.12,48.41,45.17,46.79Z"/><path class="cls-4" d="M203.38,46.4a5.26,5.26,0,0,0,1.88.34c.05,1.51-.71,1.88-2,1.45A9.77,9.77,0,0,1,203.38,46.4Z"/><path class="cls-4" d="M47.56,44.36q0-16.59,0-33.18A76.88,76.88,0,0,1,47.56,44.36Z"/><path class="cls-4" d="M202.88,11.26q0,16.55,0,33.08A78.82,78.82,0,0,1,202.88,11.26Z"/><path class="cls-5" d="M54.88,160.18c.75-7,4.55-11.57,12.11-11.26,7.33.3,11.94,5,11.7,12.18-.22,6.77-5.37,11.09-11.83,11.23C59.78,172.48,55.23,168.21,54.88,160.18Z"/><path class="cls-5" d="M55,100.4c.47-5.8,4.41-9.78,12-9.74,7.35,0,10.82,4.7,11.66,11.15.78,5.93-8,14.75-13.67,13.12S54.67,109.24,55,100.4Z"/><path class="cls-5" d="M113,102.76c.94-8.22,4.85-12.31,12.46-12.1,7.83.23,11.53,5.28,11.22,12.28-.32,7.2-5.69,11.7-12.51,11.64C117,114.51,114.23,108.48,113,102.76Z"/><path class="cls-5" d="M113.11,159.85c1.1-6.8,5-11.34,12.53-11s11.47,5.41,11.12,12.61c-.34,6.89-5,11.22-11.83,10.94C117.87,172.14,113.31,168,113.11,159.85Z"/><path class="cls-5" d="M171.34,219.09c1.15-7.68,5.15-12.25,12.56-11.86s11.63,5.16,11.18,12.52c-.42,6.79-4.85,11-11.78,11C175.82,230.63,172.24,225.83,171.34,219.09Z"/><path class="cls-5" d="M123.71,206.89c8.79.43,13,4.88,13,12.09,0,7.38-4.6,11.84-12.07,11.76-7-.08-11.08-4.38-11.39-11.37C112.94,211.62,117.85,208.24,123.71,206.89Z"/><path class="cls-5" d="M195.37,159.08c-.42,8.38-4.5,13.14-11.7,13.34s-11.9-4.24-12.07-11.79c-.15-7.12,4.1-11.2,11-11.75C190.19,148.26,193.89,153,195.37,159.08Z"/><path class="cls-5" d="M65.2,206.9c8.4.57,13.33,4.47,13.49,11.78s-4.42,11.9-11.91,12.07c-7.08.15-11.24-4.05-11.74-11C54.49,212.06,59.23,208.42,65.2,206.9Z"/><path class="cls-5" d="M195.25,101.05c-.08,7.57-8.28,16.5-13.4,14.52-5.67-2.2-10.91-6.56-10.29-14,.58-7,4.64-10.8,11.66-10.86C190.86,90.62,194.43,95.11,195.25,101.05Z"/></svg>