<svg id="Laag_1" data-name="Laag 1" xmlns="http://www.w3.org/2000/svg" viewBox="0 0 250 250"><defs><style>.cls-1{fill:#392852;}.cls-2{fill:#9a81bb;}.cls-3{fill:#9a82bb;}.cls-4{fill:#fafafa;}.cls-5{fill:#faf8fb;}</style></defs><path class="cls-1" d="M124.4,168.35c-21,1-43.94-21.18-43-44.13,1-23.78,20.87-42.79,44.07-42.59s41.52,21.16,42.42,39.62C169.45,152.34,144.57,169,124.4,168.35Zm35.42-45.23c-.82-19.2-16.89-33.65-36-33.19-18.73.46-36.24,18-35.73,35.46.5,17.24,21.52,37.83,37.31,36.55C145,160.36,160.67,142.62,159.82,123.12Z"/><path class="cls-2" d="M193.25,108A17.22,17.22,0,0,1,210,124.92c0,9.72-8.42,18.09-17.74,17.65s-17.12-8.7-16.79-17.92A17.31,17.31,0,0,1,193.25,108Zm-9.44,16.44c.08,6.14,3.43,9,8.55,9.64,4.63.63,9.74-4.3,9.41-9.07-.36-5.35-3.48-8.63-9-8.58C187.5,116.45,184.26,119.33,183.81,124.42Z"/><path class="cls-3" d="M73.9,125.68a17.42,17.42,0,0,1-17.58,16.89c-9.15-.2-16.5-8.32-16.31-18,.19-9.9,7.45-16.8,17.43-16.56C67.09,108.21,74.08,115.72,73.9,125.68Zm-8.26-1.83c-.72-4-3.13-7.65-8.88-7.48s-8.39,3.46-8.45,9c-.06,5.84,3.54,8.67,8.78,8.58S65.7,130.76,65.64,123.85Z"/><path class="cls-3" d="M142.05,57.41a17.46,17.46,0,0,1-17.58,17c-9.31-.13-17.35-8.4-17.11-17.62.25-9.56,8.16-16.83,18.27-16.78C134.47,40.06,142.17,48.22,142.05,57.41Zm-8.26,0c-.5-5.28-3.08-8.7-8.56-9.24-4.69-.45-9.37,4.21-9.46,9.14a9.06,9.06,0,0,0,8.93,8.79C130.25,65.92,133,62.68,133.79,57.38Z"/><path class="cls-3" d="M125.25,210c-9.75.09-17.58-7.1-17.9-16.44-.31-9.15,7.65-17.29,17-17.41,10-.13,17.48,6.87,17.66,16.54A16.54,16.54,0,0,1,125.25,210Zm8.46-15.82c.13-5.68-4.49-10.74-9.14-10.25-5.24.55-8.69,3.83-8.66,9.14s3,8.69,8.72,8.69C130.17,201.74,133.05,198.68,133.71,194.15Z"/><path class="cls-2" d="M173.13,60.22c10,.08,16.79,7.18,16.63,17.31s-7.32,16.86-17.36,16.65C162.84,94,155,86,155.35,76.76,155.68,67.27,163.35,60.14,173.13,60.22Zm-1.64,25.57c6.37.06,11.17-4.34,10.54-9.17-.68-5.16-3.94-8.72-9.31-8.62s-8.61,3.33-8.59,9S167.25,85.39,171.49,85.79Z"/><path class="cls-2" d="M155.74,172.87c.11-9.72,7.84-17.08,17.83-17,8.91.1,16.2,8,16.15,17.44-.05,9.85-7.45,17.18-17.2,17S155.63,182.71,155.74,172.87Zm16.47,9.2c5.58-.11,10.5-5,9.81-9.47-.79-5.08-4-8.3-9.28-8.57-5-.26-9,4.27-8.62,9.53C164.47,179.07,167.7,181.7,172.21,182.07Z"/><path class="cls-2" d="M93.52,77.57c-.09,9.85-6.89,16.63-16.68,16.62S59.6,86.85,59.65,77A17.18,17.18,0,0,1,77,59.81C86.6,60,93.61,67.55,93.52,77.57Zm-17.17,8.3c5.81-.24,9-3.1,9.55-8.49.45-4.73-4.61-10-9.2-9.38-5.08.63-8.75,3.36-8.7,9S71.22,85.43,76.35,85.87Z"/><path class="cls-2" d="M93.52,173.3c0,9.94-7.38,17.33-17,17.11-9.29-.22-16.93-7.73-16.83-16.89.12-11.25,6.85-16.94,17.86-17.51C86.86,155.53,93.55,163.45,93.52,173.3Zm-17.85,8.75c6.23.06,10.66-4,10.19-9.08s-3.71-8.43-8.94-8.94c-4.85-.48-9.17,4.13-9,9.26C68.19,178.76,71.27,181.6,75.67,182.05Z"/><path class="cls-4" d="M159.82,123.12c.85,19.5-14.87,37.24-34.4,38.82-15.79,1.28-36.81-19.31-37.31-36.55-.51-17.44,17-35,35.73-35.46C142.93,89.47,159,103.92,159.82,123.12Z"/><path class="cls-5" d="M183.81,124.42c.45-5.09,3.69-8,9-8,5.47,0,8.59,3.23,9,8.58.33,4.77-4.78,9.7-9.41,9.07C187.24,133.37,183.89,130.56,183.81,124.42Z"/><path class="cls-5" d="M65.64,123.85c.06,6.91-3.27,10-8.55,10.06s-8.84-2.74-8.78-8.58c.06-5.5,2.83-8.79,8.45-9S64.92,119.81,65.64,123.85Z"/><path class="cls-5" d="M133.79,57.38c-.78,5.3-3.54,8.54-9.09,8.69a9.06,9.06,0,0,1-8.93-8.79c.09-4.93,4.77-9.59,9.46-9.14C130.71,48.68,133.29,52.1,133.79,57.38Z"/><path class="cls-5" d="M133.71,194.15c-.66,4.53-3.54,7.59-9.08,7.58-5.69,0-8.69-3.43-8.72-8.69s3.42-8.59,8.66-9.14C129.22,183.41,133.84,188.47,133.71,194.15Z"/><path class="cls-5" d="M171.49,85.79c-4.24-.4-7.34-3.26-7.36-8.84s3.24-8.85,8.59-9,8.63,3.46,9.31,8.62C182.66,81.45,177.86,85.85,171.49,85.79Z"/><path class="cls-5" d="M172.21,182.07c-4.51-.37-7.74-3-8.09-8.51-.33-5.26,3.63-9.79,8.62-9.53,5.28.27,8.49,3.49,9.28,8.57C182.71,177.09,177.79,182,172.21,182.07Z"/><path class="cls-5" d="M76.35,85.87C71.22,85.43,68.06,82.6,68,77s3.62-8.41,8.7-9c4.59-.58,9.65,4.65,9.2,9.38C85.39,82.77,82.16,85.63,76.35,85.87Z"/><path class="cls-5" d="M75.67,182.05c-4.4-.45-7.48-3.29-7.7-8.76-.22-5.13,4.1-9.74,9-9.26,5.23.51,8.46,3.76,8.94,8.94S81.9,182.11,75.67,182.05Z"/></svg>