<svg id="Laag_1" data-name="Laag 1" xmlns="http://www.w3.org/2000/svg" viewBox="0 0 250 250"><defs><style>.cls-1{fill:#38274f;}.cls-2{fill:#37254f;}.cls-3{fill:#9a81bb;}.cls-4{fill:#9a82bb;}.cls-5{fill:#f8f7fa;}</style></defs><path class="cls-1" d="M45.36,132.65a15.76,15.76,0,0,1-2.3-1.61q-7.56-7.38-15-14.85c-1.36-1.37-2.65-2.84-1-4.9s3.64-2.28,5.66-.79c2.79,2,6,3.85,8,6.53,4.84,6.55,8.28,4.79,13.36-.15C62.81,108.41,70.51,99,79.45,90.75c13.6-12.6,26-26.53,39.26-39.46,4.54-4.41,4.31-7.3-.23-11a101,101,0,0,1-7.53-7.4c-1.2-1.21-3.59-2-1.5-4.4,1.64-1.85,3.87-2.73,5.7-1.1,6.24,5.59,12.29,11.41,18.25,17.3,2,2,0,3.31-1.34,4.65Q91.76,89.51,51.49,129.73C49.85,131.37,47.91,132,45.36,132.65Z"/><path class="cls-2" d="M204.07,116.43a30.68,30.68,0,0,1,3.06,2.26c5.06,4.9,10,9.91,15.12,14.75,2.45,2.32,1.52,4-.28,6.19-2.69,3.23-3.72.56-5.38-1.06-16.17-15.69-10.94-14.63-26.05.34-20.23,20.05-40.38,40.28-60.13,60.85-3.24,3.37-2.39,5,.39,7.51,3,2.7,5.83,5.67,8.79,8.46,2.11,2,2.7,3.67.19,6-2.2,2.06-3.62,2.47-6,.2-5.39-5.12-8.63-12.24-15.65-15.93-2.6-1.36-1.55-4.35.6-6.14,15.7-13.06,28.25-29.29,43.54-42.87,10.58-9.4,19.84-20.54,29.93-30.66C195.73,122.77,199.93,119.84,204.07,116.43Z"/><path class="cls-3" d="M143.91,160.45c-9.84.11-18-7.42-18.24-16.9s7.82-17.5,17.5-17.66c10.09-.17,17.74,7,18,16.92A17,17,0,0,1,143.91,160.45Zm-9.19-18.52c-.11,7,3.3,10.13,8.84,10.18s9.12-3.28,9.1-9.05c0-5.38-3.44-8.61-8.58-8.78C138.63,134.1,134.91,136.87,134.72,141.93Z"/><path class="cls-4" d="M125.5,108.43c-.12,9.56-8.43,17.69-17.74,17.34s-17.13-8.7-16.88-18.33a17.38,17.38,0,0,1,17.87-17.13C118.64,90.6,125.62,98.15,125.5,108.43Zm-8.25-1c-.42-5.61-4-8.75-9.53-8.48-5.06.26-8.71,3.41-8.42,9s3.54,8.92,9.53,8.66C114.44,116.41,117.1,113.28,117.25,107.45Z"/><path class="cls-5" d="M134.72,141.93c.19-5.06,3.91-7.83,9.36-7.65,5.14.17,8.56,3.4,8.58,8.78,0,5.77-3.54,9.1-9.1,9.05S134.61,148.93,134.72,141.93Z"/><path class="cls-5" d="M117.25,107.45c-.15,5.83-2.81,9-8.42,9.21-6,.26-9.23-2.89-9.53-8.66s3.36-8.77,8.42-9C113.24,98.7,116.83,101.84,117.25,107.45Z"/></svg>