<svg id="Laag_1" data-name="Laag 1" xmlns="http://www.w3.org/2000/svg" viewBox="0 0 250 250"><defs><style>.cls-1{fill:#3d2b53;}.cls-2{fill:#9a81bb;}.cls-3{fill:#fdfdfd;}</style></defs><path class="cls-1" d="M73.12,172.86c-12.25,0-24.52-.33-36.75.15-6.32.24-8-2-7.65-8,.48-8.14.05-16.33.16-24.49,0-2.62-1.28-6.3,3.73-6,4.18.24,7.29,1.25,7,6.5s.12,10.5-.1,15.75c-.18,4.07,1.2,5.68,5.47,5.65,19-.17,37.92-.21,56.88,0,4.77.06,6.08-1.77,5.86-6.16-.27-5.24,0-10.5-.08-15.75,0-3.35-.37-6.23,4.71-6.16,4.64.06,6.1,1.63,6,6.12-.25,8.74-.37,17.51,0,26.25.25,5.37-2.15,6.27-6.75,6.2C98.78,172.72,86,172.86,73.12,172.86Z"/><path class="cls-1" d="M176.86,60.13c-12.86,0-25.72-.18-38.57.09-4.5.1-6.16-1.07-6-5.79.35-8.75.16-17.53.07-26.3,0-3.41-.24-6.07,4.77-6.06s5.74,2.35,5.58,6.44c-.2,5.26.18,10.53-.1,15.78-.25,4.66,1.69,6,6.15,6q28.48-.29,57,0c4.18,0,5.72-1.31,5.53-5.5-.27-5.84.12-11.7-.13-17.53-.17-3.76,1-5.13,4.91-5.07,3.63.06,5.3.94,5.21,4.91-.21,9.35-.27,18.71,0,28.05.14,4.66-2.12,5.14-5.89,5.09C202.58,60,189.72,60.13,176.86,60.13Z"/><path class="cls-1" d="M118.26,24.36c0,9.31-.15,19.51.07,29.69.1,4.39-1.12,6.2-5.87,6.17q-39.39-.28-78.77,0c-3.89,0-5-1.26-4.92-5q.33-14,0-28c-.09-3.77,1.09-5.11,4.94-5s6.1.81,5.92,5.28c-.23,5.54.14,11.1-.11,16.63-.19,4.31,1,6.26,5.79,6.2,19-.23,37.93-.19,56.89,0,4.22,0,5.81-1.46,5.51-5.58-.21-2.9.19-5.86-.08-8.75C106.91,28.27,106.74,21.29,118.26,24.36Z"/><path class="cls-1" d="M176.66,172.78c-12.54,0-25.08-.26-37.61.13-5.5.17-7-1.65-6.74-6.95.43-8.73.22-17.49.07-26.24-.06-3.37.28-5.45,4.58-5.32,3.88.11,6,.83,5.8,5.28-.26,5.53.15,11.09-.1,16.62-.21,4.45,1.3,6.18,6,6.13q28.42-.3,56.86,0c4.77.06,6.06-1.71,5.83-6.12-.29-5.53.07-11.08-.12-16.62-.11-3.45.53-5.28,4.67-5.31s5.53,1.39,5.42,5.52c-.25,9-.31,18.09,0,27.12.17,4.77-1.76,5.89-6.13,5.82C202.33,172.64,189.5,172.78,176.66,172.78Z"/><path class="cls-2" d="M51.61,93.36c0-12.69,9.51-21.86,22.39-21.69a22,22,0,0,1-.56,44C61,115.78,51.56,106.09,51.61,93.36Zm22.7,11.83c5.91-.46,9.67-4.57,10.61-11,.86-5.83-5.33-12.13-11.36-11.84-6.67.32-10.94,3.61-11.25,10.76C62,99.88,66.77,105,74.31,105.19Z"/><path class="cls-2" d="M51.61,206.36c-.11-12.18,9.21-22,21-22.27,12.42-.25,22.72,9.33,23,21.45a21.79,21.79,0,0,1-21.78,22.39C60.71,228,51.72,219.33,51.61,206.36ZM73,217.57c6.57.21,12.44-4.92,11.93-11.3s-4-11.28-11-11.4c-6.61-.12-11.11,3.25-11.63,10.42C61.82,212.22,66.34,217.35,73,217.57Z"/><path class="cls-2" d="M177.25,227.93c-13.12,0-22.09-8.83-22.06-21.77a21.81,21.81,0,0,1,22.19-22.09,22.42,22.42,0,0,1,21.92,21.71A21.86,21.86,0,0,1,177.25,227.93Zm0-33.2a11.07,11.07,0,0,0-11.42,11.53c.18,6.83,3.83,10.77,10.65,11.26a11.2,11.2,0,0,0,12.09-10.92A11.85,11.85,0,0,0,177.25,194.73Z"/><path class="cls-2" d="M177.22,71.65a22,22,0,0,1,.21,44.06,21.73,21.73,0,0,1-22.24-22C155.18,80.85,164.39,71.64,177.22,71.65ZM188.59,94c.13-6.54-4.9-11.89-11.39-11.58S166.26,85.94,165.84,93a11.16,11.16,0,0,0,10.83,12.13A11.36,11.36,0,0,0,188.59,94Z"/><path class="cls-3" d="M74.31,105.19c-7.54-.17-12.29-5.31-12-12C62.62,86,66.89,82.72,73.56,82.4c6-.29,12.22,6,11.36,11.84C84,100.62,80.22,104.73,74.31,105.19Z"/><path class="cls-3" d="M73,217.57c-6.68-.22-11.2-5.35-10.7-12.28.52-7.17,5-10.54,11.63-10.42,7,.12,10.49,5,11,11.4S79.59,217.78,73,217.57Z"/><path class="cls-3" d="M177.25,194.73a11.85,11.85,0,0,1,11.32,11.87,11.2,11.2,0,0,1-12.09,10.92c-6.82-.49-10.47-4.43-10.65-11.26A11.07,11.07,0,0,1,177.25,194.73Z"/><path class="cls-3" d="M188.59,94a11.36,11.36,0,0,1-11.92,11.17A11.16,11.16,0,0,1,165.84,93c.42-7.08,4.79-10.3,11.36-10.62S188.72,87.44,188.59,94Z"/></svg>