<svg id="Layer_1" data-name="Layer 1" xmlns="http://www.w3.org/2000/svg" viewBox="0 0 500 500"><path id="Path_272" data-name="Path 272" d="M369.69,318.87a120,120,0,0,0-41.66-215,129.7,129.7,0,0,1,2.78,25.23q4,1.29,7.93,3A96.52,96.52,0,0,1,358.06,298.4a180.08,180.08,0,0,1,18,50.32,146,146,0,0,1,69.88,118.71H155.51a145.56,145.56,0,0,1,14-56.76c.47-1,1-2,1.44-2.94,1.43-2.84,2.94-5.64,4.55-8.37A146.08,146.08,0,0,1,261.19,333c3.76-1.07,7.63-2,11.47-2.74a8.55,8.55,0,0,0,7-8.12,8.77,8.77,0,0,0-6.31-8.82,91.81,91.81,0,0,1-10.74-3.89,96.52,96.52,0,0,1,21.94-183.86,84.56,84.56,0,0,0-4.79-23.12,120,120,0,0,0-48.2,216.38A169.77,169.77,0,0,0,170,366.39q-4.47,5.48-8.45,11.3a168.36,168.36,0,0,0-12.59,21.67c-1.33,2.74-2.6,5.54-3.79,8.37-.41,1-.81,1.94-1.2,2.94a170.08,170.08,0,0,0-12,56.76v4.75a16.91,16.91,0,0,0,16.91,16.9h303.4a16.91,16.91,0,0,0,16.91-16.9h0v-4.75h.1a169.9,169.9,0,0,0-99.55-148.56" fill="#9e7aca"/><path id="Path_273" data-name="Path 273" d="M148,377.7H54.33A145.93,145.93,0,0,1,160,243.33c3.54-1,7.17-1.88,10.78-2.62a129.15,129.15,0,0,1-1.48-18c-2.66-.86-5.27-1.85-7.83-3a96.5,96.5,0,1,1,134.33-95.4,94.67,94.67,0,0,1,.14,11.3h0a96.65,96.65,0,0,1-58.38,84.09,99.1,99.1,0,0,1-10.75,3.89,8.75,8.75,0,0,0-6.29,8.82c0,.25,0,.49.06.75a8.56,8.56,0,0,0,7,7.36c3.86.76,7.72,1.68,11.46,2.75A145.86,145.86,0,0,1,321.19,304c2.06,3.16,4,6.41,5.82,9.75a143.57,143.57,0,0,1,8.31,18q2.42,6.33,4.22,12.88a146.22,146.22,0,0,1,5.19,33.06H206.52a133.21,133.21,0,0,0-17.74,21.67H351.05A16.92,16.92,0,0,0,368,382.44v-4.75h.1a168.31,168.31,0,0,0-2.2-21.84q-1.22-7.23-3-14.26a169.38,169.38,0,0,0-14.3-37q-2.62-5-5.6-9.81a169.94,169.94,0,0,0-74.44-65.62A119.77,119.77,0,0,0,319.3,137.6a113.83,113.83,0,0,0,.1-11.54,120.36,120.36,0,0,0-3.5-24.4,118.34,118.34,0,0,0-3.64-11.76A120,120,0,1,0,130.42,229.15,169.94,169.94,0,0,0,30.76,377.7v4.74a16.91,16.91,0,0,0,16.89,16.92h88.78A184.32,184.32,0,0,1,148,377.7" fill="#341a4d"/></svg>