<svg id="Layer_1" data-name="Layer 1" xmlns="http://www.w3.org/2000/svg" viewBox="0 0 1000 1000"><g id="Rectangle_31" data-name="Rectangle 31"><path d="M914.78,563,677.1,800.71a89,89,0,0,1-125.92,0L313.5,563a89,89,0,0,1,0-125.92L551.18,199.43a89,89,0,0,1,125.92,0L914.78,437.11A89,89,0,0,1,914.78,563Z" fill="#8769ad"/></g><g id="Path_213" data-name="Path 213"><path d="M370.31,714.09a53.54,53.54,0,0,1,0,75.63l-9.22,9.22h-.62l-.6,1.22a45,45,0,0,1-63.26-.34l-268-268a45,45,0,0,1,0-63.6l268-268a45,45,0,0,1,63.6,0l10.1,10.1a53.54,53.54,0,0,1,0,75.63L192.25,464a51,51,0,0,0,0,72.08Z" fill="#381b52"/></g></svg>