<svg id="Layer_1" data-name="Layer 1" xmlns="http://www.w3.org/2000/svg" viewBox="0 0 1000 1000"><g id="Path_250" data-name="Path 250"><path d="M500,989.47a63.33,63.33,0,0,1-54.85-31.75L194,521.67a344.37,344.37,0,0,1-46-134.62l0-.18a329.57,329.57,0,0,1,104.89-281.4l.19-.17A369.91,369.91,0,0,1,733.53,93.39l.2.17A332.78,332.78,0,0,1,849.84,404.33l0,.23a341.52,341.52,0,0,1-43.34,116.88L555,957.72A63.45,63.45,0,0,1,500,989.47ZM205,380.1a287.34,287.34,0,0,0,38.48,112.35l.21.35L494.93,929a5.93,5.93,0,0,0,10.26,0L756.87,492.34l.11-.19a284.51,284.51,0,0,0,36.16-97.32,275.34,275.34,0,0,0-96-256.9,312.42,312.42,0,0,0-405.65,10A272.72,272.72,0,0,0,205,380.1Z" fill="#9e7aca"/></g><g id="Path_251" data-name="Path 251"><path d="M500,572.82c-113.47,0-205.78-92.32-205.78-205.79S386.56,161.24,500,161.24,705.82,253.56,705.82,367,613.51,572.82,500,572.82Zm0-354.08c-81.76,0-148.29,66.52-148.29,148.29S418.27,515.32,500,515.32,648.32,448.8,648.32,367,581.8,218.74,500,218.74Z" fill="#9e7aca"/></g></svg>