<svg id="Layer_1" data-name="Layer 1" xmlns="http://www.w3.org/2000/svg" viewBox="0 0 1000 1000"><path id="Rectangle_51" data-name="Rectangle 51" d="M275.42,58.13h476.3a23.1,23.1,0,0,1,23.1,23.09V918.75a23.13,23.13,0,0,1-23.13,23.12H275.45a23.12,23.12,0,0,1-23.12-23.12h0V81.22A23.09,23.09,0,0,1,275.42,58.13Z" fill="none" stroke="#9e7aca" stroke-miterlimit="10" stroke-width="60.38"/><path id="Path_258" data-name="Path 258" d="M513.57,775.08a22.28,22.28,0,1,1-22.24,22.31v-.06a22.27,22.27,0,0,1,22.24-22.25m0-60.37a82.66,82.66,0,1,0,82.63,82.68v-.06a82.62,82.62,0,0,0-82.63-82.62" fill="#9e7aca"/><path id="Path_259" data-name="Path 259" d="M664.27,784.29a13.07,13.07,0,1,1-13,13.1v-.06a13.07,13.07,0,0,1,13-13m0-35.38a48.3,48.3,0,1,0,48.3,48.3,48.3,48.3,0,0,0-48.3-48.3h0" fill="#9e7aca"/><path id="Path_260" data-name="Path 260" d="M362.91,784.29a13.07,13.07,0,1,1-13,13.1v-.06a13.07,13.07,0,0,1,13-13m0-35.38a48.3,48.3,0,1,0,48.3,48.3,48.3,48.3,0,0,0-48.3-48.3h0" fill="#9e7aca"/></svg>