<svg id="Layer_1" data-name="Layer 1" xmlns="http://www.w3.org/2000/svg" viewBox="0 0 500 500"><path id="Path_240" data-name="Path 240" d="M394.73,387.18q4.62-4.05,8.54-7.58,13.47-12.23,18.27-18.49c.77-1,1.49-2,2.17-3A60.23,60.23,0,0,0,431,344a63.7,63.7,0,0,0,3.19-21q0-27.94-17.33-43.33t-48.56-15.36c-4.38,0-8.75.21-13.07.62a135.55,135.55,0,0,0-35.57,8.37q-5.67,2.16-11.25,4.84a5.42,5.42,0,0,0-2.61,7.05l5.34,12.22a5.37,5.37,0,0,0,7.09,2.76l.17-.07a125.08,125.08,0,0,1,23.11-8.58c1.7-.42,3.41-.8,5.15-1.12a104.23,104.23,0,0,1,20-1.91,63,63,0,0,1,17.75,2.26,35.21,35.21,0,0,1,13.05,6.82q10.69,9,10.71,25.64v.1a43,43,0,0,1-5.8,22.89,58.33,58.33,0,0,1-6.95,8.72,250.17,250.17,0,0,1-21.1,19.56q-16,13.72-21.9,26.08a52.79,52.79,0,0,0-3.06,8.2A85.61,85.61,0,0,0,346.51,432v3.45a5.4,5.4,0,0,0,5.39,5.39h10.3a5.39,5.39,0,0,0,5.39-5.39c0-1.07,0-2.13.07-3.15.32-8.9,2.09-16.14,5.24-21.7.36-.61.73-1.22,1.15-1.85q5.77-8.83,20.67-21.54" fill="#341a4d"/><path id="Path_242" data-name="Path 242" d="M357,456.76q-14.82,0-14.82,16.8,0,8.9,4.2,12.79A15.06,15.06,0,0,0,357,490.24a14,14,0,0,0,11-4.38c2.65-2.94,4-7,4-12.3q0-8.16-3.9-12.47c-2.58-2.87-6.26-4.32-11.05-4.32" fill="#341a4d"/><path id="Path_243" data-name="Path 243" d="M206.42,262.6c4.1-1.16,8.36-2.17,12.46-3a9.31,9.31,0,0,0,7.62-8.83,9.49,9.49,0,0,0-6.84-9.58,104.65,104.65,0,1,1,59.32,0,9.54,9.54,0,0,0-6.86,9.58,9.34,9.34,0,0,0,7.63,8.83c4.19.81,8.37,1.82,12.47,3q5.75,1.65,11.28,3.68a153.69,153.69,0,0,1,35.25-11.85q-7-3.9-14.32-7.25a130.57,130.57,0,1,0-150.19,0A184.81,184.81,0,0,0,65.85,408.7v5.16a18.42,18.42,0,0,0,18.41,18.4H333.75V432a102.21,102.21,0,0,1,2.46-23.26H91.44a158.66,158.66,0,0,1,115-146.1" fill="#fff"/></svg>