<svg id="Layer_1" data-name="Layer 1" xmlns="http://www.w3.org/2000/svg" viewBox="0 0 500 500"><path id="Path_246" data-name="Path 246" d="M487.41,425.59H262.06A23.15,23.15,0,0,1,239,403.83c0-.45,0-.9,0-1.34a23.14,23.14,0,0,1,23.1-23.1H455.38a5.16,5.16,0,0,0,5.16-5.16v-12a5.15,5.15,0,0,0-5.16-5.15H261.06v0a43.18,43.18,0,0,0-9.13,1.11A45.44,45.44,0,0,0,218,391.35a23.1,23.1,0,1,1-9.84-44H433.51a5.16,5.16,0,0,0,5.16-5.16v-12a5.16,5.16,0,0,0-5.16-5.15H207.18v0A45.49,45.49,0,0,0,164,359.51a23.09,23.09,0,0,1,4.2-43.16,22.36,22.36,0,0,1,5.81-.74H308.87a45.55,45.55,0,0,0,41.8,0H399.4a5.16,5.16,0,0,0,5.15-5.16v-12a5.16,5.16,0,0,0-5.15-5.16H371.5a44.19,44.19,0,0,0,3-9.8H438a5.16,5.16,0,0,0,5.16-5.16v-12A5.15,5.15,0,0,0,438,261.1H348a23.09,23.09,0,0,1-32.7,32.15L315,293a22.79,22.79,0,0,1-6.84-9.57,23,23,0,0,1,3.32-22.36c.14-.19.29-.39.45-.58l25-30.16,34.59-41.8,69.53,57.55a5.16,5.16,0,0,0,7.26-.67h0l7.66-9.26a5.16,5.16,0,0,0-.67-7.26h0l-69.54-57.55-11.89-9.83a6.9,6.9,0,0,0-9.72.9h0l-9.85,11.89h0l-58.72,70.94-1.12,1.33-1,1.23,0,0a43.6,43.6,0,0,0-3.53,5.47l-10.79,30.14h5.9a44.68,44.68,0,0,0,3,9.8H275.67l-1.42,3.95a20.06,20.06,0,0,1-25.61,12.13l-44.95-16.08h-9.93a21.24,21.24,0,0,1,2.28-2.74L174,282.64a44.41,44.41,0,0,0-4.92,10.9,45.44,45.44,0,0,0-4.54,89.61,45.43,45.43,0,0,0,42.66,32.73v0h11.45a45.43,45.43,0,0,0,42.43,32v0H487.41a5.17,5.17,0,0,0,5.16-5.16v-12a5.16,5.16,0,0,0-5.16-5.15" fill="#8769ad"/><path id="Path_247" data-name="Path 247" d="M295.73,177.68l-86.21-30.85c.13,1.54.19,3.1.19,4.67a55,55,0,0,1-3,18.07L274.8,194l-24,67.15-4,11.18L215.52,261.1l-181.78-65,28-78.34,40.53,14.5a55.37,55.37,0,0,1,12.26-19.36l-58.65-21a8.14,8.14,0,0,0-10.4,4.9L7.91,201.93a8.14,8.14,0,0,0,4.92,10.4L182.1,272.89l29.62,10.59,27.35,9.78,13.58,4.86A8.14,8.14,0,0,0,263,293.26a.26.26,0,0,0,0-.08l3.49-9.73,8-22.35,26.14-73a8.15,8.15,0,0,0-4.92-10.39" fill="#341a4d"/><path id="Path_248" data-name="Path 248" d="M237.27,52.06a43.51,43.51,0,1,0,43.51,43.5,43.5,43.5,0,0,0-43.51-43.5m0,64.66a21.16,21.16,0,1,1,21.16-21.16,21.16,21.16,0,0,1-21.16,21.16" fill="#341a4d"/><path id="Path_249" data-name="Path 249" d="M154.27,108a43.51,43.51,0,1,0,43.52,43.5A43.51,43.51,0,0,0,154.27,108m0,64.66a21.16,21.16,0,1,1,21.16-21.16,21.14,21.14,0,0,1-21.16,21.16" fill="#341a4d"/></svg>