<svg id="Layer_1" data-name="Layer 1" xmlns="http://www.w3.org/2000/svg" viewBox="0 0 500 500"><path id="Path_324" data-name="Path 324" d="M451.38,116.32V481.88a10.78,10.78,0,0,1-10.78,10.78H339.25a23.65,23.65,0,0,0,2.65-10.94V468.38h85.19V125.69L195.34,37.82v189.5H171.06V17.53c0-.34,0-.66,0-1a10.48,10.48,0,0,1,11.68-9.13,10.69,10.69,0,0,1,2.56.65l258.12,97.88a10.78,10.78,0,0,1,7.92,10.38" fill="#8769ad"/><path id="Path_326" data-name="Path 326" d="M318,240.26H59.56a10.94,10.94,0,0,0-10.94,10.92V481.72a10.92,10.92,0,0,0,10.91,10.94H318A10.93,10.93,0,0,0,329,481.73h0V251.21a10.94,10.94,0,0,0-10.93-11h0M304.68,468.38H72.9V264.54H304.68Z" fill="#341a4d"/></svg>