<svg id="Layer_1" data-name="Layer 1" xmlns="http://www.w3.org/2000/svg" viewBox="0 0 500 500"><path id="Path_240" data-name="Path 240" d="M397.86,390.13c3.14-2.75,6.06-5.33,8.72-7.74a168.21,168.21,0,0,0,18.67-18.89c.78-1,1.52-2,2.22-3.07A62,62,0,0,0,434.85,346a65.13,65.13,0,0,0,3.26-21.46q0-28.54-17.7-44.25t-49.6-15.7q-6.72,0-13.36.65a138.12,138.12,0,0,0-36.34,8.55q-5.78,2.21-11.48,4.93a5.55,5.55,0,0,0-2.68,7.2l5.46,12.49a5.51,5.51,0,0,0,7.25,2.83l.16-.08a128.44,128.44,0,0,1,23.62-8.77c1.74-.42,3.48-.81,5.26-1.14a107.18,107.18,0,0,1,20.45-2,64.29,64.29,0,0,1,18.14,2.31,36.06,36.06,0,0,1,13.32,7q10.93,9.24,10.95,26.2v.1a43.79,43.79,0,0,1-5.93,23.38,59.66,59.66,0,0,1-7.08,8.92,257.7,257.7,0,0,1-21.56,20q-16.35,14-22.37,26.64a53.84,53.84,0,0,0-3.13,8.38,87.35,87.35,0,0,0-2.89,23.76v3.52a5.52,5.52,0,0,0,5.51,5.5h10.52a5.5,5.5,0,0,0,5.51-5.5h0c0-1.1,0-2.17.07-3.22A48.22,48.22,0,0,1,375.56,414c.36-.62.74-1.24,1.18-1.89q5.88-9,21.11-22" fill="#8769ad"/><path id="Path_242" data-name="Path 242" d="M359.34,461.22q-15.13,0-15.14,17.16,0,9.09,4.29,13.07a15.38,15.38,0,0,0,10.85,4A14.36,14.36,0,0,0,370.56,491a18.07,18.07,0,0,0,4.05-12.56,18.37,18.37,0,0,0-4-12.75,14.4,14.4,0,0,0-11.29-4.41" fill="#8769ad"/><path id="Path_243" data-name="Path 243" d="M205.48,262.87c4.18-1.19,8.53-2.22,12.72-3.05a9.5,9.5,0,0,0,7.79-9,9.69,9.69,0,0,0-7-9.79,109,109,0,0,1-12-4.32A106.95,106.95,0,1,1,279.61,241a9.74,9.74,0,0,0-7,9.79,9.54,9.54,0,0,0,7.79,9c4.29.83,8.56,1.86,12.74,3.05q5.87,1.68,11.52,3.76a156.28,156.28,0,0,1,36-12.1q-7.12-4-14.63-7.42a133.41,133.41,0,1,0-153.43,0,188.8,188.8,0,0,0-110.72,165v5.26a18.81,18.81,0,0,0,18.81,18.8H335.57v-.3a103.77,103.77,0,0,1,2.51-23.76H88A162.07,162.07,0,0,1,205.48,262.87" fill="#341a4d"/></svg>