<svg id="Layer_1" data-name="Layer 1" xmlns="http://www.w3.org/2000/svg" viewBox="0 0 500 500"><path id="Path_327" data-name="Path 327" d="M283.43,96.25a1.35,1.35,0,0,1-2-1.75,48.34,48.34,0,0,1,74.66-9.61,48.31,48.31,0,0,1,68.32,1.41,48.86,48.86,0,0,1,6.33,8.2,1.35,1.35,0,0,1-2,1.75,55.84,55.84,0,0,0-72.66,4,55.86,55.86,0,0,0-72.68-4" fill="#341a4d"/><path id="Path_328" data-name="Path 328" d="M361,55.71a1,1,0,0,1-1.45-.16,1,1,0,0,1-.08-1.18A37.18,37.18,0,0,1,416.86,47a37.17,37.17,0,0,1,52.55,1.08,37.6,37.6,0,0,1,4.86,6.31,1,1,0,0,1-.35,1.42,1.06,1.06,0,0,1-1.18-.07,42.94,42.94,0,0,0-55.89,3.07A43,43,0,0,0,361,55.71" fill="#341a4d"/><path id="Path_329" data-name="Path 329" d="M477.06,398.3a65.14,65.14,0,0,1-58.46,65l-1.15.11-118.56,0a21.57,21.57,0,0,0,2.34-9.77V441.4l115.08.06A43.4,43.4,0,0,0,425,357a35,35,0,0,0-46.57-26.33,34.93,34.93,0,0,0-66.89,8.89,25.13,25.13,0,0,0-9.27-1.74c-.37,0-.72,0-1.07,0V309.36a56.82,56.82,0,0,1,87.72-2.8c.57,0,1.16,0,1.76,0a56.85,56.85,0,0,1,52.21,34.35,65.09,65.09,0,0,1,34.14,57.41" fill="#341a4d"/><path id="Path_331" data-name="Path 331" d="M282.35,156.78,36.22,48c-5.78-2.55-12.67,1.1-13.24,7.4a8.7,8.7,0,0,0,0,.89V453.55a9.82,9.82,0,0,0,9.82,9.83h247a9.82,9.82,0,0,0,9.82-9.83V166.24a9.84,9.84,0,0,0-7.2-9.46M267.63,441.46H44.85V75.81l222.78,98.43Z" fill="#9e7aca"/></svg>