<svg id="Layer_1" data-name="Layer 1" xmlns="http://www.w3.org/2000/svg" viewBox="0 0 500 500"><path id="Path_274" data-name="Path 274" d="M250.76,36.51C158.26,36.51,78,90,39.26,167.71a1.81,1.81,0,0,0,2.65,2.3A123.91,123.91,0,0,1,213,201.4a1.81,1.81,0,0,0,3.22-.64C236.51,119,297.71,79,413.39,106.25a1.81,1.81,0,0,0,2.17-1.37,1.79,1.79,0,0,0-.5-1.7,235.39,235.39,0,0,0-164.3-66.67m-9.49,68.9a147.71,147.71,0,0,0-36.81,48,150.6,150.6,0,0,0-93-32c-1.61,0-3.22,0-4.81.07A209.08,209.08,0,0,1,313.51,73.22c-28.23,4.65-52.42,15.42-72.24,32.19" fill="#341a4d"/><path id="Path_275" data-name="Path 275" d="M111.49,175.78a96.86,96.86,0,1,0,96.86,96.86h0a97,97,0,0,0-96.86-96.86m49.29,146.15a69.72,69.72,0,1,1,20.41-49.29,69.72,69.72,0,0,1-20.41,49.29" fill="#9e7aca"/><path id="Path_276" data-name="Path 276" d="M86.62,393.75c115.68,27.24,176.87-12.7,197.2-94.51A1.8,1.8,0,0,1,286,297.9a1.84,1.84,0,0,1,1.05.7,123.9,123.9,0,0,0,171,31.39,1.81,1.81,0,0,1,2.65,2.3c-38.71,77.68-119,131.2-211.5,131.2A235.37,235.37,0,0,1,85,396.82a1.82,1.82,0,0,1,1.68-3.07m99.86,33a209.11,209.11,0,0,0,206.84-48.31c-1.6.06-3.21.07-4.82.07a150.62,150.62,0,0,1-93-32,147.71,147.71,0,0,1-36.81,48c-19.81,16.76-44,27.54-72.24,32.19" fill="#9e7aca"/><path id="Path_277" data-name="Path 277" d="M291.65,227.36a96.86,96.86,0,1,1,96.86,96.86,96.86,96.86,0,0,1-96.86-96.86m27.16,0a69.68,69.68,0,1,0,20.41-49.29,69.68,69.68,0,0,0-20.41,49.29" fill="#341a4d"/></svg>