<svg data-name="Laag 1" width="512" height="384" xmlns="http://www.w3.org/2000/svg"><g transform="rotate(180 256 188.755)"><rect x="-46.258" y="216.093" width="291.891" height="291.891" rx="50.54" transform="rotate(-45)" style="stroke-width:.511641;fill:#8769ad"/><path style="color:#000;fill:#381b52;fill-opacity:1;stroke:none;stroke-width:30.325px;-inkscape-stroke:none" d="M164.296 21.189c3.057 0 6.114 1.21 8.533 3.63l.003.003 5.738 5.733c6.72 6.728 6.72 17.17-.005 23.895L77.48 155.535c-16.425 16.43-16.425 43.523 0 59.952l.002.002.003.003L178.571 316.5c6.72 6.728 6.719 17.17-.005 23.896l-5.733 5.728-.003.003c-4.84 4.84-12.227 4.84-17.067 0v-.001L3.63 194.02v-.001c-4.84-4.84-4.84-12.227 0-17.066L155.762 24.82l.001-.001c2.42-2.42 5.476-3.63 8.533-3.63z"/></g></svg>