<svg id="Laag_1" data-name="Laag 1" xmlns="http://www.w3.org/2000/svg" viewBox="0 0 1158.48 922.54"><defs><style>.cls-1{fill:#8769ad;}.cls-2{fill:none;stroke-width:98.78px;}.cls-2,.cls-3{stroke:#fff;}.cls-3{fill:#381b52;stroke-width:59.27px;}</style></defs><g id="Group_102" data-name="Group 102"><g id="Rectangle_31" data-name="Rectangle 31"><rect class="cls-1" x="467.86" y="320.87" width="570.5" height="570.5" rx="98.78" transform="translate(-263.91 565.21) rotate(-45)"/><rect class="cls-2" x="418.47" y="271.48" width="669.28" height="669.28" rx="148.17" transform="translate(-263.91 565.21) rotate(-45)"/></g><path id="Path_213" data-name="Path 213" class="cls-3" d="M287.37,643.76a53.23,53.23,0,0,1,0-75.27L484.94,370.92a62.67,62.67,0,0,0,0-88.62l-11.21-11.2a53.22,53.22,0,0,0-75.27,0h0L101.12,568.44a53.22,53.22,0,0,0,0,75.27h0L398.46,941a53.22,53.22,0,0,0,75.27,0h0l11.21-11.2a62.67,62.67,0,0,0,0-88.62Z" transform="translate(-55.89 -144.85)"/></g></svg>