<svg data-name="Laag 1" viewBox="0 0 1158.48 922.54" xmlns="http://www.w3.org/2000/svg"><g transform="rotate(-180 545.348 461.086)"><rect x="-118.416" y="533.921" width="570.5" height="570.5" rx="98.78" transform="rotate(-45)" style="fill:#8769ad"/><path style="color:#000;fill:#381b52;stroke:none;stroke-width:59.27px;-inkscape-stroke:none" d="M231.48 498.91a53.23 53.23 0 0 1 0-75.27l197.57-197.57a62.67 62.67 0 0 0 0-88.62l-11.21-11.2a53.22 53.22 0 0 0-75.27 0L45.23 423.59a53.22 53.22 0 0 0 0 75.27l297.34 297.29a53.22 53.22 0 0 0 75.27 0l11.21-11.2a62.67 62.67 0 0 0 0-88.62z"/></g></svg>