<?xml version="1.0" encoding="utf-8"?>
<!-- Generator: Adobe Illustrator 24.3.0, SVG Export Plug-In . SVG Version: 6.00 Build 0)  -->
<svg version="1.1" id="Laag_1" xmlns="http://www.w3.org/2000/svg" xmlns:xlink="http://www.w3.org/1999/xlink" x="0px" y="0px"
	 viewBox="0 0 595.28 841.89" style="enable-background:new 0 0 595.28 841.89;" xml:space="preserve">
<style type="text/css">
	.st0{fill:none;stroke:#6E6CB0;stroke-width:10.1599;stroke-miterlimit:10;}
	.st1{fill:#FFFFFF;}
	.st2{fill:#6E6CB0;}
</style>
<path class="st0" d="M225.22,639.53"/>
<path class="st1" d="M329.53,240.49c13.71-9.7,22.07-25.59,22.07-42.47c0-28.66-23.32-51.98-51.98-51.98
	c-28.66,0-51.98,23.32-51.98,51.98c0,16.89,8.35,32.78,22.07,42.47c-25.31,11.4-42.26,36.55-43.17,64.35v2.05
	c0,4.06,3.29,7.35,7.35,7.35h131.41c4.06,0,7.35-3.29,7.35-7.35v-2.05h0.04C371.76,277.04,354.83,251.88,329.53,240.49z
	 M236.71,304.83c1.03-27.06,19.57-50.79,45.81-58.2c1.63-0.46,3.31-0.86,4.97-1.19c1.73-0.34,2.95-1.75,3.03-3.51
	c0.08-1.75-1.04-3.32-2.73-3.82c-1.58-0.47-3.15-1.03-4.66-1.68c-15.38-6.63-25.32-21.7-25.32-38.41c0-23.05,18.75-41.8,41.8-41.8
	s41.8,18.75,41.8,41.8c0,16.71-9.94,31.78-25.33,38.41c-1.51,0.65-3.07,1.22-4.66,1.68c-1.69,0.5-2.81,2.07-2.72,3.82
	c0.08,1.76,1.3,3.17,3.03,3.51c1.67,0.33,3.34,0.73,4.97,1.19c26.24,7.42,44.77,31.15,45.8,58.2H236.71z"/>
<line class="st2" x1="236.71" y1="304.83" x2="362.5" y2="304.83"/>
</svg>
