<?xml version="1.0" encoding="utf-8"?>
<!-- Generator: Adobe Illustrator 24.3.0, SVG Export Plug-In . SVG Version: 6.00 Build 0)  -->
<svg version="1.1" id="Laag_1" xmlns="http://www.w3.org/2000/svg" xmlns:xlink="http://www.w3.org/1999/xlink" x="0px" y="0px"
	 viewBox="0 0 600 600" style="enable-background:new 0 0 600 600;" xml:space="preserve">
<style type="text/css">
	.st0{fill:#FFFFFF;}
</style>
<g>
	<path class="st0" d="M128.99,84c0-13.58,0-26.39,0-39.6c13.28,0,26.32,0,39.79,0c0,12.91,0,25.84,0,39.18
		c88.12,0,175.83,0,264.13,0c0-12.97,0-26.02,0-39.32c13.52,0,26.45,0,39.97,0c0,13.09,0,26.15,0,39.74c8.04,0,15.48-0.01,22.93,0
		c34.7,0.07,61.16,26.39,61.17,61c0.03,116.66,0.03,233.31,0,349.97c-0.01,34.6-26.46,61-61.17,61.01
		c-129.82,0.03-259.64,0.03-389.47,0c-34.99-0.01-61.34-26.4-61.35-61.33c-0.01-116.49-0.02-232.98,0-349.47
		c0.01-34.65,26.41-61.1,61-61.18C113.47,83.99,120.93,84,128.99,84z M85,232.25c0,2.09,0,3.59,0,5.09c0,85.49,0,170.98,0,256.48
		c0,14.18,8.08,22.19,22.38,22.19c128.99,0.01,257.98,0.01,386.97,0c14.63,0,22.65-7.93,22.65-22.43c0.01-85.33,0-170.65,0-255.98
		c0-1.76,0-3.52,0-5.35C372.71,232.25,229.12,232.25,85,232.25z M85.08,191.62c144.32,0,287.99,0,431.87,0
		c0-16.69,0.29-33.01-0.11-49.31c-0.22-9.16-7.37-17.01-16.62-17.89c-8.85-0.84-17.85-0.18-27.37-0.18c0,13.4,0,26.45,0,39.49
		c-13.52,0-26.44,0-39.95,0c0-13.31,0-26.36,0-39.33c-88.28,0-175.96,0-264.06,0c0,13.32,0,26.25,0,39.23c-13.46,0-26.5,0-39.95,0
		c0-13.29,0-26.22,0-39.46c-9.19,0-18.02-0.58-26.75,0.16c-9.19,0.77-16.66,8.51-16.92,17.63
		C84.74,158.41,85.08,174.88,85.08,191.62z"/>
	<path class="st0" d="M121.24,313.72c0-13.18,0-26.08,0-39.35c13.07,0,26.09,0,39.44,0c0,13.03,0,26.05,0,39.35
		C147.63,313.72,134.73,313.72,121.24,313.72z"/>
	<path class="st0" d="M240.7,313.75c-13.12,0-26.03,0-39.32,0c0-13.02,0-26.04,0-39.4c12.98,0,25.99,0,39.32,0
		C240.7,287.45,240.7,300.47,240.7,313.75z"/>
	<path class="st0" d="M320.77,274.28c0,13.18,0,26.09,0,39.36c-13.08,0-26.1,0-39.44,0c0-13.04,0-26.06,0-39.36
		C294.37,274.28,307.27,274.28,320.77,274.28z"/>
	<path class="st0" d="M361.12,313.66c0-13.24,0-26.02,0-39.24c13.08,0,26.1,0,39.5,0c0,12.85,0,25.87,0,39.24
		C387.63,313.66,374.61,313.66,361.12,313.66z"/>
	<path class="st0" d="M441.37,274.24c13.28,0,26.18,0,39.36,0c0,13.14,0,26.04,0,39.35c-12.94,0-25.97,0-39.36,0
		C441.37,300.69,441.37,287.67,441.37,274.24z"/>
	<path class="st0" d="M160.6,393.8c-13.18,0-26.08,0-39.29,0c0-13.22,0-26.24,0-39.53c13.09,0,25.99,0,39.29,0
		C160.6,367.25,160.6,380.27,160.6,393.8z"/>
	<path class="st0" d="M240.75,354.29c0,13.14,0,26.04,0,39.33c-13.03,0-26.05,0-39.41,0c0-12.99,0-26.01,0-39.33
		C214.34,354.29,227.24,354.29,240.75,354.29z"/>
	<path class="st0" d="M281.24,393.64c0-13.28,0-26.18,0-39.36c13.14,0,26.04,0,39.35,0c0,12.95,0,25.97,0,39.36
		C307.69,393.64,294.67,393.64,281.24,393.64z"/>
	<path class="st0" d="M361.23,393.63c0-13.27,0-26.17,0-39.35c13.13,0,26.04,0,39.35,0c0,12.93,0,25.96,0,39.35
		C387.69,393.63,374.67,393.63,361.23,393.63z"/>
	<path class="st0" d="M480.72,393.76c-13.18,0-26.08,0-39.35,0c0-13.07,0-26.09,0-39.44c13.03,0,26.05,0,39.35,0
		C480.72,367.37,480.72,380.27,480.72,393.76z"/>
	<path class="st0" d="M160.76,434.37c0,13.28,0,26.18,0,39.36c-13.13,0-26.04,0-39.35,0c0-12.94,0-25.96,0-39.36
		C134.31,434.37,147.33,434.37,160.76,434.37z"/>
	<path class="st0" d="M201.41,434.19c13.15,0,26.05,0,39.27,0c0,13.21,0,26.23,0,39.53c-13.05,0-25.96,0-39.27,0
		C201.41,460.78,201.41,447.76,201.41,434.19z"/>
	<path class="st0" d="M320.62,473.78c-13.23,0-26.13,0-39.33,0c0-13.12,0-26.02,0-39.35c12.9,0,25.92,0,39.33,0
		C320.62,447.28,320.62,460.3,320.62,473.78z"/>
	<path class="st0" d="M361.37,434.23c13.26,0,26.16,0,39.35,0c0,13.13,0,26.03,0,39.35c-12.93,0-25.95,0-39.35,0
		C361.37,460.7,361.37,447.68,361.37,434.23z"/>
</g>
</svg>
