<svg id="Layer_1" data-name="Layer 1" xmlns="http://www.w3.org/2000/svg" viewBox="0 0 425.2 425.2"><path d="M352.18,117.72c0-.66,0-1.34,0-2a23.12,23.12,0,0,0-24.13-22H95.17A23.15,23.15,0,0,0,73,117.75v79.1Q73,237,73,277a20.69,20.69,0,0,0,.24,3.68,16.46,16.46,0,0,0,17.1,13.91c34.58,0,69.65,0,104.22,0h.63a4.14,4.14,0,0,1-.12.48c-2.16,7.65-4.27,15.45-6.26,23.17l0,.19v.14a.73.73,0,0,1-.85.57l-.26,0c-2,0-4,0-5.88,0-2.27,0-4.61,0-6.91-.05a3.61,3.61,0,0,0-2.8.91,3.54,3.54,0,0,0-.74,2.8,24.05,24.05,0,0,1,0,4.49,4,4,0,0,0,.74,3.18,4.33,4.33,0,0,0,3.4,1.11h74.86a4.9,4.9,0,0,0,.64,0,3,3,0,0,0,2.12-.75,3.27,3.27,0,0,0,.86-2.76,36.2,36.2,0,0,1,0-5.51,3.39,3.39,0,0,0-.74-2.55,3.55,3.55,0,0,0-2.77-.9h0c-1.8,0-3.64,0-5.41,0-2.35,0-4.79,0-7.19.05-1.11,0-1.21,0-1.46-1.06-1.52-5.94-3.17-12-4.77-17.8l-1.29-4.74c-.08-.3-.17-.61-.24-.89H334.79c.53,0,1.06,0,1.6,0a16.59,16.59,0,0,0,15.79-17.33ZM207.79,295a.53.53,0,0,1,.58-.33l.23,0c2.63.09,5.28.08,7.84,0h.35a.54.54,0,0,1,.6.46l0,.19c2.09,7.9,4.26,15.9,6.46,23.79v0h-.07c-1.28,0-2.57,0-3.85,0h-7.56l-3.64,0c-2.42,0-4.92,0-7.41,0h-.1c2.2-7.86,4.38-15.87,6.46-23.78l.07-.2Zm132-22.54c0,1.42,0,2.83,0,4.24,0,4.44-1.44,5.87-5.85,5.87H91.32c-4.6,0-6-1.41-6-6,0-1.71,0-3.42,0-5.12,0-3.35.07-6.82,0-10.25a3.23,3.23,0,0,1,.06-.87,3.53,3.53,0,0,1,1-.09l126.29,0,125.79,0a3.7,3.7,0,0,1,1.34.13s.15.23.11,1.14C339.77,265.2,339.8,268.87,339.82,272.42Zm.06-154.94v.11c-.06,42.94-.06,86.49,0,129.43a2.86,2.86,0,0,1-.07.73,5.06,5.06,0,0,1-.93.05H212.66c-41.81,0-84.18,0-125.93,0a4.42,4.42,0,0,1-1.13-.1h0a2.86,2.86,0,0,1-.13-1.16V117.68a10.05,10.05,0,0,1,0-1.9A10.72,10.72,0,0,1,97,106.05H328.26a12.34,12.34,0,0,1,1.72,0h.08A10.68,10.68,0,0,1,339.88,117.48Z" fill="#341a4d"/><path d="M212.83,265.39a6.13,6.13,0,0,0-6.34,6v.27a6.09,6.09,0,0,0,6.06,5.94h.24a6.1,6.1,0,0,0,5.94-6.25v0A6.15,6.15,0,0,0,212.83,265.39Z" fill="#341a4d"/></svg>