<svg id="Laag_1" data-name="Laag 1" xmlns="http://www.w3.org/2000/svg" viewBox="0 0 178.37 151.47"><defs><style>.cls-1{fill:#8669ac;}</style></defs><path class="cls-1" d="M293,367.1c24.79,0,49.58.09,74.37-.06A14.62,14.62,0,0,1,382,381.71q-.24,51.27,0,102.55A10.49,10.49,0,0,1,371.29,495c-21.75-.09-43.5,0-65.24,0-.54,0-1.08,0-1.62,0-1,0-1.17.4-.92,1.29q2,7.36,4,14.76c.25,1,.79,1.2,1.7,1.19,2.65,0,5.3,0,7.95,0,1.21,0,1.71.41,1.65,1.61s0,2.36,0,3.53c0,.85-.38,1.28-1.26,1.23-.29,0-.59,0-.88,0H269.1c-2.11,0-2.11,0-2.12-2.13,0-4.23,0-4.22,4.16-4.23,1.87,0,3.74,0,5.6,0a1.35,1.35,0,0,0,1.54-1.19q1.94-7.32,4-14.62c.35-1.22-.12-1.45-1.19-1.43-2.07,0-4.13,0-6.19,0H214.2c-5.14,0-9.38-3.3-10.21-8a27.81,27.81,0,0,1-.31-4.83q0-48.78,0-97.55a29.54,29.54,0,0,1,.41-6.3,14,14,0,0,1,13.76-11.1Q255.42,367.08,293,367.1Zm-.15,99.16h80.85c1.94,0,1.94,0,1.94-2V382.19c0-5.63-3.08-8.73-8.77-8.73H219c-5.75,0-8.79,3.1-8.79,8.86v81.52c0,2.42,0,2.42,2.36,2.42Zm-.07,6.35H212.19c-2,0-2,0-2,2.05v9c0,3.6,1.15,4.76,4.73,4.76H371c3.38,0,4.58-1.22,4.58-4.62,0-3,0-6,0-9,0-2.19,0-2.19-2.15-2.19Zm.09,39.4a57.49,57.49,0,0,0,7.19,0c.73-.06,1.09-.09.84-1q-2.07-7.43-4.05-14.87c-.22-.82-.6-1.27-1.51-1.25-1.61,0-3.23,0-4.85,0a1.3,1.3,0,0,0-1.45,1.12q-2,7.51-4.08,15c-.21.74-.05,1,.71,1C288,512,290.44,512,292.84,512Z" transform="translate(-203.67 -367.04)"/><path class="cls-1" d="M292.92,483.79a3.16,3.16,0,1,1,3.21-3.14A3.24,3.24,0,0,1,292.92,483.79Z" transform="translate(-203.67 -367.04)"/></svg>