<?xml version="1.0" encoding="UTF-8" standalone="no"?>
<svg
   id="Laag_1"
   data-name="Laag 1"
   viewBox="0 0 256.00001 256"
   version="1.1"
   sodipodi:docname="computer.svg"
   width="256"
   height="256"
   inkscape:version="1.1.1 (3bf5ae0d25, 2021-09-20)"
   xmlns:inkscape="http://www.inkscape.org/namespaces/inkscape"
   xmlns:sodipodi="http://sodipodi.sourceforge.net/DTD/sodipodi-0.dtd"
   xmlns="http://www.w3.org/2000/svg"
   xmlns:svg="http://www.w3.org/2000/svg">
  <sodipodi:namedview
     id="namedview11"
     pagecolor="#ffffff"
     bordercolor="#111111"
     borderopacity="1"
     inkscape:pageshadow="0"
     inkscape:pageopacity="0"
     inkscape:pagecheckerboard="1"
     showgrid="false"
     fit-margin-top="0"
     fit-margin-left="0"
     fit-margin-right="0"
     fit-margin-bottom="0"
     inkscape:zoom="1"
     inkscape:cx="88.5"
     inkscape:cy="75.5"
     inkscape:window-width="1920"
     inkscape:window-height="1003"
     inkscape:window-x="0"
     inkscape:window-y="0"
     inkscape:window-maximized="1"
     inkscape:current-layer="Laag_1" />
  <defs
     id="defs4">
    <style
       id="style2">.cls-1{fill:#8669ac;}</style>
  </defs>
  <path
     class="cls-1"
     d="m 128.24625,19.302554 c 35.58323,0 71.16646,0.129185 106.74969,-0.08612 a 20.98535,20.98535 0 0 1 20.99971,21.057119 q -0.3445,73.59226 0,147.19888 a 15.057204,15.057204 0 0 1 -15.37299,15.41605 c -31.21966,-0.12918 -62.43931,0 -93.64462,0 -0.7751,0 -1.55021,0 -2.32532,0 -1.43539,0 -1.6794,0.57416 -1.32056,1.85165 q 2.87078,10.56444 5.74155,21.1863 c 0.35885,1.43539 1.13395,1.72247 2.44016,1.70811 3.80377,0 7.60754,0 11.41132,0 1.73682,0 2.45451,0.58851 2.36839,2.31098 -0.0861,1.72246 0,3.38751 0,5.06691 0,1.22008 -0.54545,1.83729 -1.80859,1.76553 -0.41626,0 -0.84688,0 -1.26314,0 H 93.940511 c -3.028665,0 -3.028665,0 -3.043019,-3.05738 0,-6.07168 0,-6.05733 5.971208,-6.07168 2.684172,0 5.36835,0 8.03817,0 a 1.9377717,1.9377717 0 0 0 2.21049,-1.70811 q 2.78465,-10.50703 5.74155,-20.98535 c 0.50238,-1.75117 -0.17225,-2.08131 -1.70811,-2.0526 -2.97125,0 -5.92815,0 -8.88504,0 H 15.137795 c -7.3778856,0 -13.4639241,-4.73678 -14.65529491,-11.4831 a 39.918097,39.918097 0 0 1 -0.4449698,-6.93291 q 0,-70.01815 0,-140.021952 A 42.401316,42.401316 0 0 1 0.62603873,35.421944 20.09541,20.09541 0 0 1 20.376956,19.489154 q 53.927469,-0.215307 107.869294,-0.1866 z m -0.21531,142.332916 h 116.051 c 2.78465,0 2.78465,0 2.78465,-2.87077 V 40.962535 c 0,-8.081225 -4.42099,-12.530923 -12.58834,-12.530923 H 22.02765 c -8.253472,0 -12.6170462,4.449698 -12.6170462,12.717523 V 158.16184 c 0,3.47363 0,3.47363 3.3875112,3.47363 z m -0.10047,9.11471 H 12.252669 c -2.8707729,0 -2.8707729,0 -2.8707729,2.94254 v 12.91848 c 0,5.16739 1.6506939,6.83244 6.7893779,6.83244 H 240.20639 c 4.85161,0 6.57407,-1.75117 6.57407,-6.63149 0,-4.30616 0,-8.61232 0,-12.91847 0,-3.1435 0,-3.1435 -3.08608,-3.1435 z m 0.12918,56.55422 a 82.520367,82.520367 0 0 0 10.32043,0 c 1.04783,-0.0861 1.56457,-0.12918 1.20572,-1.43538 q -2.97125,-10.66492 -5.81331,-21.3442 c -0.31579,-1.17701 -0.86123,-1.82294 -2.16743,-1.79423 -2.31098,0 -4.6363,0 -6.96163,0 a 1.8660024,1.8660024 0 0 0 -2.08131,1.60763 q -2.87077,10.77975 -5.85638,21.5308 c -0.30143,1.06218 -0.0718,1.43538 1.01913,1.43538 3.34445,-0.0144 6.84679,-0.0144 10.29172,-0.0144 z"
     id="path6"
     style="stroke-width:1.43539" />
  <path
     class="cls-1"
     d="m 128.13142,132.53554 a 4.5358212,4.5358212 0 1 1 4.60759,-4.50711 4.6506521,4.6506521 0 0 1 -4.60759,4.50711 z"
     id="path8"
     style="stroke-width:1.43539" />
</svg>
