<svg id="Laag_1" data-name="Laag 1" xmlns="http://www.w3.org/2000/svg" viewBox="0 0 200.67 113.11"><defs><style>.cls-1{fill:#8669ac;}</style></defs><path class="cls-1" d="M293.76,409.3c11.07,0,22.15,0,33.23,0a3.51,3.51,0,0,0,3.65-2.11c.77-1.54,1.7-3,2.61-4.49a1.61,1.61,0,0,0-.54-2.52,7.81,7.81,0,0,0-3.14-1.22c-1.57-.27-3.15-.56-4.69-1-1-.26-2-.68-2-1.91s1-1.72,1.89-2.09a11.61,11.61,0,0,1,4.71-.77c3.73.11,7.47.33,11.2.33,3.26,0,6.53-.29,9.79-.32,2.09,0,3,1.15,2.86,3.21a2.46,2.46,0,0,1-2.75,2.51,28.72,28.72,0,0,0-9,1.87,5.24,5.24,0,0,0-3.14,2.56c-1.26,2.28-2.6,4.51-3.94,6.74a2.69,2.69,0,0,0-.25,2.8c2,4.16,3.9,8.34,5.75,12.56.62,1.43,1.47,1.14,2.57.79,11.31-3.65,22.33-2.89,32.73,2.89,13,7.24,20.41,18.47,21.28,33.39,1,17.11-6.41,30-21.14,38.67s-35.53,6-47.91-6.06A41.27,41.27,0,0,1,314.89,470c-.22-1.78-.92-2.21-2.54-2.18-3.6.08-7.2,0-10.81,0a6.13,6.13,0,0,1-5.17-2.47c-3-3.75-6.06-7.47-9.36-10.95-2-2.07-3.49-4.46-5.44-6.52-2.1-2.23-4-4.65-6-7s-3.92-4.54-5.87-6.83-3.95-4.7-5.93-7-4-4.68-6-7c-.73-.84-1.35-2.35-2.41-2.15s-1,1.86-1.39,2.89c-.56,1.5-1,3.06-1.52,4.55-.44,1.18-.15,1.81,1,2.32a39.24,39.24,0,0,1,21.1,20.89c5.83,13.45,4.94,26.69-3,39-8.25,12.7-20.33,19.05-35.5,18.76-13-.25-23.64-5.86-31.66-16.19A39.19,39.19,0,0,1,196,465.92a41.07,41.07,0,0,1,35.94-41.44,39.76,39.76,0,0,1,13.33.53c1.55.32,2.25,0,2.74-1.57,2.26-7.34,4.65-14.63,7-21.94.72-2.26.61-2.42-1.71-2.44a85.44,85.44,0,0,0-10,.33,13.78,13.78,0,0,0-5.15,1.53c-1.7.92-1.76,2.27-.22,3.46a9.56,9.56,0,0,0,4.65,1.68,11.6,11.6,0,0,1,2.35.44,2.15,2.15,0,0,1,1.46,2.54,2,2,0,0,1-1.95,1.93c-3.9.06-7.64-.65-10.54-3.49-3.24-3.17-2.63-8,1.22-10.45,3.45-2.21,7.4-2.66,11.33-2.82s8,0,12,.06c2.94.09,3.71,1.37,2.76,4.16s-1.89,5.84-3,8.72c-.64,1.74-.12,2.19,1.65,2.18C271.2,409.27,282.48,409.3,293.76,409.3ZM273.2,465a31,31,0,0,0-1.18-9.16c-3-10.58-9.44-18.21-19.18-23.15-2.19-1.11-2.39-1-3.17,1.46-2.79,8.69-5.54,17.38-8.33,26.07a6,6,0,0,0-.22,4.05,3.93,3.93,0,0,1-2.28,5,4.22,4.22,0,0,1-5.27-1.59,4.15,4.15,0,0,1,1-5.56,5.83,5.83,0,0,0,2-3.29c1.23-4,2.52-8,3.8-12,1.59-5,3.17-9.92,4.82-14.85.45-1.35.18-2-1.27-2.2-1.65-.19-3.3-.54-4.95-.63a36.21,36.21,0,1,0,1.24,72.23A35.88,35.88,0,0,0,273.2,465Zm63.22,2.8v0H322.21c-2.45,0-2.75.34-2.37,2.65,2.1,12.53,8.74,22,20.17,27.39a36.19,36.19,0,1,0,5-67.2c-1.56.46-2.18,1-1.33,2.81,4.14,8.74,8.15,17.53,12.18,26.32a4,4,0,0,0,1.7,1.85,4.19,4.19,0,1,1-4.56,6.94,3.24,3.24,0,0,0-2.15-.81C346,467.79,341.23,467.77,336.42,467.77Zm-76.63-53.31c-.07.5.32.73.57,1q9.4,11,18.83,22.07c6.27,7.35,12.58,14.68,18.82,22.06,1,1.24,1.62,1.06,2.24-.26a24.28,24.28,0,0,1,1.25-2.5c8.18-13.31,15.77-27,23.72-40.39,1.25-2.11,1.17-2.24-1.27-2.24q-31.23,0-62.47,0C260.92,414.23,260.29,414,259.79,414.46Zm75.84,48.43c4.67,0,9.33,0,14,0,2.06,0,2.2-.29,1.26-2.19-.56-1.14-1.09-2.29-1.62-3.43q-5.08-11.08-10.16-22.16c-.5-1.09-.95-1.62-2.21-.81a36.69,36.69,0,0,0-17.14,26.24c-.27,1.69.22,2.43,2.08,2.39C326.44,462.82,331,462.89,335.63,462.89Zm-26.45,0a23.76,23.76,0,0,1,2.8,0c2,.22,2.79-.45,3-2.58.52-6.66,3.1-12.68,6.71-18.19a39.08,39.08,0,0,1,12.85-12.08c1.45-.87,1.53-1.69.85-3.07-1.27-2.56-2.39-5.2-3.62-7.79-.3-.63-.38-1.68-1.18-1.68s-.94,1-1.3,1.63q-8.81,15.12-17.57,30.25-3.4,5.88-6.87,11.73c-.71,1.21-.62,1.84,1,1.77C306.91,462.85,308.05,462.89,309.18,462.89Z" transform="translate(-195.99 -393.26)"/></svg>