<?xml version="1.0" encoding="UTF-8" standalone="no"?>
<svg
   id="Laag_1"
   data-name="Laag 1"
   viewBox="0 0 256 256.00001"
   version="1.1"
   sodipodi:docname="fiets.svg"
   width="256"
   height="256"
   inkscape:version="1.1.1 (3bf5ae0d25, 2021-09-20)"
   xmlns:inkscape="http://www.inkscape.org/namespaces/inkscape"
   xmlns:sodipodi="http://sodipodi.sourceforge.net/DTD/sodipodi-0.dtd"
   xmlns="http://www.w3.org/2000/svg"
   xmlns:svg="http://www.w3.org/2000/svg">
  <sodipodi:namedview
     id="namedview9"
     pagecolor="#ffffff"
     bordercolor="#111111"
     borderopacity="1"
     inkscape:pageshadow="0"
     inkscape:pageopacity="0"
     inkscape:pagecheckerboard="1"
     showgrid="false"
     fit-margin-top="0"
     fit-margin-left="0"
     fit-margin-right="0"
     fit-margin-bottom="0"
     inkscape:zoom="1"
     inkscape:cx="127.5"
     inkscape:cy="127.5"
     inkscape:window-width="1920"
     inkscape:window-height="1003"
     inkscape:window-x="0"
     inkscape:window-y="0"
     inkscape:window-maximized="1"
     inkscape:current-layer="Laag_1" />
  <defs
     id="defs4">
    <style
       id="style2">.cls-1{fill:#8669ac;}</style>
  </defs>
  <path
     class="cls-1"
     d="m 124.71917,76.399638 c 14.12192,0 28.2566,0 42.39128,0 a 4.4776829,4.4776829 0 0 0 4.65628,-2.691713 c 0.98229,-1.964567 2.16868,-3.827079 3.32956,-5.727862 a 2.0538659,2.0538659 0 0 0 -0.68887,-3.214746 9.9631633,9.9631633 0 0 0 -4.00568,-1.556346 c -2.00284,-0.344437 -4.01843,-0.714388 -5.983,-1.275693 -1.27569,-0.33168 -2.55138,-0.867471 -2.55138,-2.436574 0,-1.569102 1.27569,-2.194192 2.41106,-2.666198 a 14.810797,14.810797 0 0 1 6.00851,-0.982284 c 4.75834,0.140326 9.52943,0.420979 14.28776,0.420979 4.15876,0 8.33028,-0.369951 12.48904,-0.408222 2.6662,0 3.82708,1.467047 3.64848,4.094975 a 3.1382051,3.1382051 0 0 1 -3.50816,3.20199 36.637906,36.637906 0 0 0 -11.48123,2.385546 6.6846319,6.6846319 0 0 0 -4.00568,3.265774 c -1.60737,2.90858 -3.3168,5.753376 -5.02623,8.598172 a 3.4316145,3.4316145 0 0 0 -0.31892,3.57194 c 2.55138,5.306884 4.9752,10.639281 7.33523,16.022706 0.79093,1.824241 1.87527,1.45429 3.27853,1.007797 14.42809,-4.656279 28.48623,-3.686753 41.75344,3.686751 16.58401,9.23602 26.0369,23.56205 27.14675,42.5954 1.27569,21.8271 -8.17719,38.27078 -26.96815,49.33104 -18.79096,11.06026 -45.32538,7.65416 -61.11846,-7.7307 a 52.647855,52.647855 0 0 1 -16.12476,-32.05816 c -0.28066,-2.27073 -1.17364,-2.81928 -3.24026,-2.78101 -4.5925,0.10206 -9.18499,0 -13.79025,0 a 7.8199988,7.8199988 0 0 1 -6.59533,-3.15096 c -3.82708,-4.78385 -7.7307,-9.52943 -11.94049,-13.96884 -2.55138,-2.64069 -4.45217,-5.68959 -6.93977,-8.31752 -2.67895,-2.8448 -5.10277,-5.93197 -7.65416,-8.92985 -2.55138,-2.99788 -5.000711,-5.79165 -7.488313,-8.71299 -2.487601,-2.92133 -5.038988,-5.99575 -7.56486,-8.929849 -2.525872,-2.934094 -5.102772,-5.970244 -7.654159,-8.929852 -0.931256,-1.071582 -1.722185,-2.997879 -3.07442,-2.74274 -1.352235,0.255138 -1.275693,2.372789 -1.773214,3.686753 -0.714388,1.91354 -1.275693,3.903621 -1.939053,5.804404 -0.561305,1.505317 -0.191354,2.309004 1.275693,2.959608 a 50.058198,50.058198 0 0 1 26.917126,26.649226 c 7.43729,17.15808 6.30192,34.04825 -3.82708,49.75203 -10.524469,16.2013 -25.934842,24.30195 -45.287106,23.932 C 34.514913,199.8357 20.941538,192.67906 10.71048,179.50115 A 49.994413,49.994413 0 0 1 0.0074144,148.62938 52.392716,52.392716 0 0 1 45.855825,95.76466 50.721558,50.721558 0 0 1 62.860814,96.440777 c 1.977325,0.408222 2.87031,0 3.495399,-2.002838 2.883067,-9.363588 5.931974,-18.663391 8.929852,-27.988707 0.918499,-2.883067 0.778173,-3.087178 -2.181435,-3.112691 a 108.99522,108.99522 0 0 0 -12.756931,0.420978 17.579051,17.579051 0 0 0 -6.56982,1.951811 c -2.168678,1.173637 -2.24522,2.895823 -0.280652,4.413898 a 12.195626,12.195626 0 0 0 5.931973,2.143164 14.79804,14.79804 0 0 1 2.997879,0.561305 2.7427402,2.7427402 0 0 1 1.862512,3.240261 2.5513862,2.5513862 0 0 1 -2.487602,2.462087 c -4.975203,0.07654 -9.746295,-0.8292 -13.445805,-4.452169 -4.133246,-4.043947 -3.355073,-10.205544 1.556345,-13.330992 4.401141,-2.819282 9.440129,-3.393344 14.453603,-3.597455 5.013474,-0.204111 10.205545,0 15.308318,0.07654 3.750537,0.114812 4.732821,1.747699 3.520913,5.306883 -1.211909,3.559184 -2.41106,7.450048 -3.82708,11.124044 -0.816443,2.219706 -0.153083,2.793768 2.104894,2.781011 14.46636,-0.07654 28.856173,-0.03827 43.245993,-0.03827 z M 98.490923,147.45575 A 39.546487,39.546487 0 0 0 96.985605,135.7704 c -3.827079,-13.49684 -12.042543,-23.23038 -24.467794,-29.5323 -2.793768,-1.41602 -3.048906,-1.27569 -4.043947,1.86251 -3.559184,11.08578 -7.06734,22.17155 -10.626524,33.25732 a 7.6541587,7.6541587 0 0 0 -0.280652,5.16656 5.013474,5.013474 0 0 1 -2.90858,6.37846 5.383425,5.383425 0 0 1 -6.722903,-2.02835 5.2941264,5.2941264 0 0 1 1.275693,-7.09285 7.4372909,7.4372909 0 0 0 2.551386,-4.19703 c 1.569103,-5.10277 3.214747,-10.20555 4.847634,-15.30832 2.028352,-6.37846 4.043947,-12.65487 6.148841,-18.94404 0.574062,-1.72219 0.229625,-2.55139 -1.62013,-2.80653 -2.104894,-0.24238 -4.209788,-0.68887 -6.314681,-0.80368 a 46.192848,46.192848 0 1 0 1.581859,92.1433 45.771869,45.771869 0 0 0 42.085116,-46.4097 z m 80.649317,3.57194 v 0 h -18.1276 c -3.12545,0 -3.50816,0.43373 -3.02339,3.38058 2.67895,15.98443 11.14956,28.06524 25.73073,34.94123 a 46.167334,46.167334 0 1 0 6.37846,-85.72657 c -1.99008,0.58682 -2.78101,1.27569 -1.69667,3.5847 5.28137,11.14956 10.3969,22.3629 15.53794,33.57624 a 5.1027725,5.1027725 0 0 0 2.16868,2.36003 5.3451542,5.3451542 0 1 1 -5.81716,8.85331 4.1332457,4.1332457 0 0 0 -2.74274,-1.03331 c -6.18711,0.051 -12.27217,0.0255 -18.40825,0.0255 z M 81.383878,83.020485 c -0.0893,0.637847 0.408222,0.931256 0.727146,1.275693 q 11.991515,14.032625 24.021296,28.154552 c 7.9986,9.37634 16.04822,18.72717 24.00855,28.14179 1.27569,1.58186 2.06662,1.35223 2.85755,-0.33168 a 30.973829,30.973829 0 0 1 1.59462,-3.18924 c 10.43517,-16.97947 20.11768,-34.44371 30.25944,-51.525242 1.59461,-2.691713 1.49256,-2.857553 -1.62013,-2.857553 q -39.8399,0 -79.69255,0 c -0.714388,0 -1.518075,-0.293409 -2.155922,0.293409 z M 178.13244,144.8023 c 5.95749,0 11.90222,0 17.85971,0 2.62792,0 2.80652,-0.36995 1.60737,-2.79376 -0.71439,-1.45429 -1.39051,-2.92134 -2.06662,-4.37563 q -6.48052,-14.13468 -12.96105,-28.26936 c -0.63784,-1.39051 -1.2119,-2.06662 -2.81928,-1.03331 a 46.805181,46.805181 0 0 0 -21.86538,33.47418 c -0.34443,2.15593 0.28066,3.09994 2.65344,3.04891 5.86819,-0.1786 11.68535,-0.0893 17.59181,-0.0893 z m -33.74208,0 a 30.310469,30.310469 0 0 1 3.57194,0 c 2.55139,0.28066 3.55918,-0.57406 3.82708,-3.29128 0.66336,-8.49612 3.95465,-16.17579 8.5599,-23.20486 a 49.854087,49.854087 0 0 1 16.39266,-15.41038 c 1.84975,-1.10985 1.95181,-2.15592 1.08434,-3.916374 -1.62013,-3.265774 -3.04891,-6.633604 -4.61801,-9.937649 -0.38271,-0.803687 -0.48477,-2.143165 -1.50532,-2.143165 -1.02056,0 -1.19915,1.275693 -1.6584,2.07938 q -11.23886,19.288478 -22.41393,38.589718 -4.33736,7.50108 -8.76401,14.96388 c -0.90574,1.54359 -0.79093,2.34728 1.27569,2.25798 1.35224,-0.0765 2.80653,-0.0255 4.24806,-0.0255 z"
     id="path6"
     style="stroke-width:1.27569" />
</svg>
