<svg id="Layer_1" data-name="Layer 1" xmlns="http://www.w3.org/2000/svg" viewBox="0 0 512 512"><defs><style>.cls-1{fill:#4f2564;}.cls-2{fill:#82569b;}</style></defs><path class="cls-1" d="M263.74,1a3.13,3.13,0,0,1,4.09-.5C314,31.78,355.66,59.88,397.12,88.27c2.57,1.76,5,5.91,5,9,.28,67.62.22,135.23.22,202.93a3.14,3.14,0,0,1-4.18,3c-10.77-3.9-13.89-9.11-13.89-21.28,0-57.23-.13-114.46.14-171.69,0-7.23-1.91-11.75-8.17-15.89-27.33-18.12-54.31-36.75-83.49-56.66a3.14,3.14,0,0,0-4.91,2.57c0,10.14,0,18.87,0,27.6,0,15.26.29,30.53-.15,45.78-.11,3.64-1.55,8.89-4.17,10.55-17.52,11-35.43,21.46-54.83,33a3.14,3.14,0,0,1-4.74-2.69V120.81c0-22.13-.23-44.26.21-66.38.09-4.52,1.59-9.93,4.39-13.31C239.88,27.46,251.9,14.34,263.74,1Z"/><path class="cls-2" d="M161.8,336.86a5.36,5.36,0,0,0,5.35-5.37c0-2.54,0-5,0-7.41.05-22-.23-44,.39-66,.17-5.94,4.36-13.59,9.25-17,21.83-15,44.11-29.42,66.28-44l.07,0c3.47-2.24,8,.51,8,4.64V506.64a5.36,5.36,0,0,0,5.36,5.36h30.7a5.36,5.36,0,0,0,5.35-5.36q0-80.68.26-161.37c0-3.41,3.53-8.23,6.72-9.94,12.42-6.67,25.61-11.91,38-18.67,3.43-1.87,7-7.09,7.1-10.84.57-28.11.55-56.25.12-84.37-.08-5.2-3.58-12-7.77-15.1Q308,185,278.35,164.68c-4.49-3.08-11.91-3.15-16.47-.19q-53.65,34.9-106.79,70.62c-2.51,1.68-5.56,5-5.59,7.57-.37,29.44-.27,58.9-.26,88.81a5.38,5.38,0,0,0,5.36,5.37Z"/><path class="cls-1" d="M177.3,512a9.47,9.47,0,0,0,9.48-9.48q0-45.6.23-91.21c0-3.85,3-8.44,5.88-11.38,6.29-6.37,12.74-12.58,19.51-19a9.48,9.48,0,0,0-6.52-16.35c-18.79,0-36.75,0-54.72.23-2.94,0-6.32,2.36-8.69,4.5-8.78,7.93-17.81,15.71-25.53,24.61-3.78,4.36-6.86,11-6.9,16.68q-.41,46-.35,91.92a9.49,9.49,0,0,0,9.49,9.49Z"/><path class="cls-2" d="M384.05,325a2.09,2.09,0,0,1,2.76-2c5.1,1.8,15.48,6.37,15.23,13.66-.3,8.81-.05,147,0,171.6a3.68,3.68,0,0,1-3.65,3.72H386.83a2.81,2.81,0,0,1-2.78-2.83Z"/></svg>