<svg id="Layer_1" data-name="Layer 1" xmlns="http://www.w3.org/2000/svg" viewBox="0 0 512 512"><defs><style>.cls-1{fill:#4f2564;}.cls-2{fill:#82569b;}</style></defs><path class="cls-1" d="M46.54,178C60.67,187.6,73.37,196.16,86,204.82a3.85,3.85,0,0,1,1.49,2.69c.08,20.71.06,41.43.06,62.17-4.25-1.23-5.42-2.7-5.42-6.79,0-17.17,0-34.34,0-51.51a5,5,0,0,0-2.45-4.77c-8.65-5.74-17.2-11.65-26.52-18v10c0,4.58.09,9.16,0,13.74,0,1.09-.46,2.67-1.25,3.16-5.68,3.59-11.5,6.95-17.87,10.73V214.58c0-6.64-.07-13.28.06-19.91a6.92,6.92,0,0,1,1.32-4C39,186.36,42.81,182.24,46.54,178Z"/><path class="cls-1" d="M82.24,277.75a5,5,0,0,1,5-5H105.8q9.57.08,15.54,4.71t6,14.83q0,10.44-5.46,15.27t-15.5,4.83H97.63V332H82.24Zm15.39,22.17h2.59a27.79,27.79,0,0,0,7.62-.83c2.3-.6,3.45-2.7,3.45-6.32s-1.1-6-3.29-6.62a27.25,27.25,0,0,0-7.78-1H97.63Z"/><path class="cls-1" d="M164.76,307.69,183.36,332H164.21l-14.53-22.77h-.15V332H134.14V272.76h23q8.79.08,14.68,4.43t5.89,13.86a18.41,18.41,0,0,1-3.34,10.87,14.17,14.17,0,0,1-9.61,5.85Zm-15.23-8.4H151a4.13,4.13,0,0,0,.78.08h.71a15.42,15.42,0,0,0,6.32-1.61q2.86-1.45,2.87-5.77t-2.87-5.83a15.28,15.28,0,0,0-6.32-1.63h-3Z"/><path class="cls-1" d="M217.28,270.79a34.46,34.46,0,0,1,22.77,8.6,27.55,27.55,0,0,1,10,21.94q0,14.37-9.23,23.48t-23.51,9.1q-14.21,0-23.48-9.1t-9.26-23.48a27.52,27.52,0,0,1,10-21.94,34.07,34.07,0,0,1,22.77-8.52Zm-11.82,19.75a14.72,14.72,0,0,0-4.9,10.87,17.35,17.35,0,0,0,4.9,12.64,16.38,16.38,0,0,0,23.63,0A17.43,17.43,0,0,0,234,301.37a14.8,14.8,0,0,0-4.91-10.9,16.37,16.37,0,0,0-11.81-4.76A16.64,16.64,0,0,0,205.46,290.54Z"/><path class="cls-2" d="M319.1,272.76h23.56q9.57.08,15.54,4.71t6,14.83q0,10.44-5.46,15.27t-15.5,4.83h-8.72V332H319.1Zm15.39,27.16h2.59a27.79,27.79,0,0,0,7.62-.83c2.3-.6,3.45-2.7,3.45-6.32s-1.1-6-3.3-6.62a27.12,27.12,0,0,0-7.77-1h-2.59Z"/><path class="cls-2" d="M380.26,321.67,376.18,332H359.85l22.77-59.19h16.8L421.72,332H405.31l-3.85-10.28ZM391,291.05h-.16l-6.36,18.84h12.8Z"/><path class="cls-2" d="M468.82,274.17v18.45a15.24,15.24,0,0,0-6-4.79,18,18,0,0,0-7.54-1.65,14.78,14.78,0,0,0-11.43,4.75,16.63,16.63,0,0,0-4.35,11.66A15.87,15.87,0,0,0,444,314.13a15.43,15.43,0,0,0,11.58,4.55,16.88,16.88,0,0,0,7.31-1.68,17.58,17.58,0,0,0,6-4.6v18.37c-1.41.47-2.75.88-4,1.22s-2.49.64-3.69.9a25.24,25.24,0,0,1-2.87.47,26.74,26.74,0,0,1-3,.16,32.09,32.09,0,0,1-11.9-2.24A34,34,0,0,1,433,324.89a27.57,27.57,0,0,1-7.18-10.09,32.2,32.2,0,0,1-2.32-12.29,31.56,31.56,0,0,1,2.24-11.7,29.6,29.6,0,0,1,6.48-10,32,32,0,0,1,10-6.87,30.93,30.93,0,0,1,11.85-2.71h.71a32.85,32.85,0,0,1,7.18.79,40.05,40.05,0,0,1,6.87,2.2Z"/><path class="cls-2" d="M493.71,285.79v9.89h17.35v13H493.71v10.21H512v13H478.32V272.76H512v13Z"/><path class="cls-2" d="M17,279.4v-3.83c0-6.87-.07-13.75.14-20.61a5.47,5.47,0,0,1,2-3.79C26,246.48,32.91,242,39.8,237.49a23.22,23.22,0,0,1,2.44-1.2V332H54.66q0-25,.08-50a4.23,4.23,0,0,1,2-3c3.73-2,7.69-3.57,11.4-5.6a4.63,4.63,0,0,0,2.13-3.25c.17-8.7.16-17.41,0-26.11a4.82,4.82,0,0,0-1.74-3.31q-9.39-6.94-19-13.52a3.56,3.56,0,0,0-3.18-.05c-11,7.17-22,14.46-32.94,21.77a3.67,3.67,0,0,0-1.68,2.28c-.12,9.36-.07,18.72-.07,28.25Z"/><path class="cls-1" d="M22.91,332q0-15.1.07-30.21a5.61,5.61,0,0,1,1.76-3.41c3.42-3.47,7-6.77,11-10.61-8.31,0-15.92,0-23.54.07a4.57,4.57,0,0,0-2.61,1.35A89,89,0,0,0,2,296.52a8.56,8.56,0,0,0-2.07,5Q-.25,316.75-.22,332Z"/><path class="cls-1" d="M250.6,272.75H270l11.27,15.69,9.84-15.69h16l-16.84,27.55L312.16,332l-17.46-.36-13.48-18.95L269.09,332H253.73l19.15-31.31Z"/><rect class="cls-1" x="250.02" y="320.09" width="13.9" height="11.86"/><rect class="cls-1" x="297.99" y="272.76" width="13.9" height="11.86"/></svg>