<svg id="Layer_1" data-name="Layer 1" xmlns="http://www.w3.org/2000/svg" viewBox="0 0 425.2 425.2"><path d="M333.07,301.58V123.68a37.89,37.89,0,0,0-1.16-10,29.56,29.56,0,0,0-30-21.55c-20.9.2-42.18.16-62.75.12q-13.08,0-26.17,0l-11.42,0c-8.07,0-16.28,0-24.22,0-19.11,0-38.87,0-58.32.35a28.15,28.15,0,0,0-26.31,25.51c-.45,6.35-.59,12.79-.42,19.15,0,17.64,0,35.57,0,52.92,0,35.87.08,73-.15,109.41a30,30,0,0,0,0,4.45,31.25,31.25,0,0,0,31.11,29c.75,0,1.5,0,2.25-.08,42.52-.38,85.76-.31,127.58-.25,15.75,0,32,.05,48.05.05h.38a29.19,29.19,0,0,0,3.5,0A29.72,29.72,0,0,0,333.07,301.58ZM104,124.22a18.16,18.16,0,0,1,0-2.76,19.23,19.23,0,0,1,20.53-17.77c58.53.34,117.91.34,176.53,0a19.84,19.84,0,0,1,2.78,0,19,19,0,0,1,17.6,20.24c-.17,43.94-.15,88.63-.13,131.84q0,22.32,0,44.71a18.22,18.22,0,0,1-20.65,20.77H125a18.44,18.44,0,0,1-20.36-13.3,25.87,25.87,0,0,1-.5-7.19V212.28c0-8.31,0-16.75,0-24.92C104.26,166.67,104.33,145.27,104,124.22Z" fill="#341a4d"/><path d="M193.9,258l.49,0a8,8,0,0,0,7.88-6.62,21.29,21.29,0,0,0,.35-4.57v-.45c.08-7.31.15-14.88,0-22.33,0-1.48.17-2.32.66-2.8a3.44,3.44,0,0,1,2.6-.59c5,.24,10.26.24,15.51,0a29.46,29.46,0,0,0,.43-58.75c-6.95-.34-14-.33-20.92-.31h-4.14c-7.44,0-10.08,2.67-10.08,10.15V210q0,5.46,0,10.88,0,3.81,0,7.63c0,7.06,0,14.36.11,21.53A7.76,7.76,0,0,0,193.9,258Zm8.83-63.29c0-1.12,0-2.23,0-3.34h0c0-1.17,0-2.34,0-3.5,0-2.3.08-4.68,0-7a3.33,3.33,0,0,1,.61-2.61c.49-.5,1.36-.7,2.81-.65,2.37.1,4.78.08,7.11.06,2.15,0,4.39,0,6.59,0H220a13.25,13.25,0,0,1,12.78,13.67v.11a13.28,13.28,0,0,1-13.26,13.31c-1.8,0-3.64,0-5.41,0-2.56,0-5.21-.05-7.82.08-1.41,0-2.47,0-3.05-.63s-.68-1.4-.6-2.83C202.82,199.17,202.77,196.89,202.73,194.69Z" fill="#341a4d"/></svg>