<?xml version="1.0" encoding="UTF-8" standalone="no"?>
<!-- Generator: Adobe Illustrator 24.3.0, SVG Export Plug-In . SVG Version: 6.00 Build 0)  -->

<svg
   version="1.1"
   id="Laag_1"
   x="0px"
   y="0px"
   viewBox="0 0 256.11183 256.00001"
   xml:space="preserve"
   sodipodi:docname="parking.svg"
   width="256.11182"
   height="256"
   inkscape:version="1.1.1 (3bf5ae0d25, 2021-09-20)"
   xmlns:inkscape="http://www.inkscape.org/namespaces/inkscape"
   xmlns:sodipodi="http://sodipodi.sourceforge.net/DTD/sodipodi-0.dtd"
   xmlns="http://www.w3.org/2000/svg"
   xmlns:svg="http://www.w3.org/2000/svg"><defs
   id="defs11" /><sodipodi:namedview
   id="namedview9"
   pagecolor="#ffffff"
   bordercolor="#111111"
   borderopacity="1"
   inkscape:pageshadow="0"
   inkscape:pageopacity="0"
   inkscape:pagecheckerboard="1"
   showgrid="false"
   fit-margin-top="0"
   fit-margin-left="0"
   fit-margin-right="0"
   fit-margin-bottom="0"
   inkscape:zoom="1"
   inkscape:cx="80.5"
   inkscape:cy="80.5"
   inkscape:window-width="1920"
   inkscape:window-height="1003"
   inkscape:window-x="0"
   inkscape:window-y="0"
   inkscape:window-maximized="1"
   inkscape:current-layer="Laag_1" />
<style
   type="text/css"
   id="style2">
	.st0{fill:#8769AD;}
</style>
<path
   class="st0"
   d="M 128.33488,255.95147 H 34.956889 c -21.899932,0 -34.8930408,-12.89733 -34.90900284,-34.90901 -0.06384821,-55.00521 -0.06384821,-110.01044 0,-164.999703 0,-6.943492 0,-13.871021 0,-20.750664 0,-22.027629 13.15272984,-35.21228275 35.24420684,-35.24420684 45.156639,-0.06384821 90.329237,-0.06384821 135.485887,0 17.09534,0 34.1907,-0.09577232 51.28606,0 13.82314,0.0957723 24.70925,5.45902114 30.98234,18.37231884 2.05911,4.213982 3.09664,8.858939 3.06472,13.551781 0,64.199365 0,128.398734 0,192.582134 0.016,17.33478 -14.0147,31.41331 -31.36543,31.42927 -0.19155,0 -0.3831,0 -0.55868,0 -31.95602,0.0319 -63.91204,0.016 -95.85211,-0.0319 z m 114.70329,-127.6964 c 0,-31.285617 0,-62.571235 0,-93.872815 0,-14.365844 -7.0233,-21.357222 -21.35722,-21.357222 H 34.924965 c -14.828744,0 -21.820122,7.023302 -21.820122,21.979742 0,61.932754 0.223468,123.865505 -0.191545,185.798265 0,11.95557 6.512517,22.47456 22.155326,22.34687 62.251995,-0.39906 124.503986,-0.14366 186.755986,-0.17559 14.60527,0 21.18164,-6.70405 21.1976,-21.37318 0.0319,-31.126 0.0319,-62.252 0.016,-93.378 z"
   id="path4"
   style="stroke-width:1.59621" />
<path
   class="st0"
   d="m 99.894766,124.9602 c 0,-12.5726 0,-25.161164 0,-37.733768 0,-10.785636 3.079334,-13.769236 13.944744,-13.673505 8.36046,0.07977 16.72092,-0.382922 25.09734,0.654158 17.23149,2.249666 29.37331,18.045197 27.12364,35.276685 -1.97843,15.09351 -14.4553,26.59712 -29.6605,27.34701 -4.67484,0 -9.36563,0.17551 -14.02451,0 -3.52608,-0.15955 -4.91417,1.03708 -4.78653,4.69079 0.20742,7.89777 0,15.79554 0,23.6933 0.1436,2.09012 -0.20741,4.19619 -1.00517,6.14271 -1.2764,3.23888 -4.49933,5.29708 -7.97754,5.12158 -3.51012,0 -6.62136,-2.29753 -7.64248,-5.66406 -0.82967,-2.61663 -1.180679,-5.37686 -1.037083,-8.12113 -0.03191,-12.57261 -0.03191,-25.14521 -0.03191,-37.73377 z m 17.710144,-19.51307 v 0 c 0,3.70158 0,7.38721 0,11.08879 0,2.18584 0.97326,3.19101 3.19101,3.19101 5.29709,0 10.62609,0.3191 15.95509,-0.14359 7.43506,-0.62225 12.54069,-7.05215 12.28541,-14.72654 0,-7.27552 -5.75979,-13.226766 -13.01935,-13.498002 -4.78652,-0.223371 -9.57305,0 -14.4553,-0.09573 -2.93574,0 -4.03664,1.196631 -3.92495,4.036636 0.0798,3.398432 -0.016,6.780906 -0.0319,10.147426 z"
   id="path6"
   style="stroke-width:1.59551" />
</svg>
