<?xml version="1.0" encoding="utf-8"?>
<!-- Generator: Adobe Illustrator 24.3.0, SVG Export Plug-In . SVG Version: 6.00 Build 0)  -->
<svg version="1.1" id="Laag_1" xmlns="http://www.w3.org/2000/svg" xmlns:xlink="http://www.w3.org/1999/xlink" x="0px" y="0px"
	 viewBox="0 0 160.43 160.4" style="enable-background:new 0 0 160.43 160.4;" xml:space="preserve">
<style type="text/css">
	.st0{fill:#8769AD;}
</style>
<path class="st0" d="M80.39,160.39h-58.5c-13.72,0-21.86-8.08-21.87-21.87c-0.04-34.46-0.04-68.92,0-103.37c0-4.35,0-8.69,0-13
	c0-13.8,8.24-22.06,22.08-22.08c28.29-0.04,56.59-0.04,84.88,0c10.71,0,21.42-0.06,32.13,0c8.66,0.06,15.48,3.42,19.41,11.51
	c1.29,2.64,1.94,5.55,1.92,8.49c0,40.22,0,80.44,0,120.65c0.01,10.86-8.78,19.68-19.65,19.69c-0.12,0-0.24,0-0.35,0
	C120.42,160.43,100.4,160.42,80.39,160.39z M152.25,80.39c0-19.6,0-39.2,0-58.81c0-9-4.4-13.38-13.38-13.38h-117
	C12.58,8.2,8.2,12.6,8.2,21.97c0,38.8,0.14,77.6-0.12,116.4c0,7.49,4.08,14.08,13.88,14c39-0.25,78-0.09,117-0.11
	c9.15,0,13.27-4.2,13.28-13.39c0.02-19.5,0.02-39,0.01-58.5L152.25,80.39z"/>
<path class="st0" d="M62.6,78.36c0-7.88,0-15.77,0-23.65c0-6.76,1.93-8.63,8.74-8.57c5.24,0.05,10.48-0.24,15.73,0.41
	c10.8,1.41,18.41,11.31,17,22.11c-1.24,9.46-9.06,16.67-18.59,17.14c-2.93,0-5.87,0.11-8.79,0c-2.21-0.1-3.08,0.65-3,2.94
	c0.13,4.95,0,9.9,0,14.85c0.09,1.31-0.13,2.63-0.63,3.85c-0.8,2.03-2.82,3.32-5,3.21c-2.2,0-4.15-1.44-4.79-3.55
	c-0.52-1.64-0.74-3.37-0.65-5.09C62.6,94.13,62.6,86.25,62.6,78.36z M73.7,66.13L73.7,66.13c0,2.32,0,4.63,0,6.95c0,1.37,0.61,2,2,2
	c3.32,0,6.66,0.2,10-0.09c4.66-0.39,7.86-4.42,7.7-9.23c0-4.56-3.61-8.29-8.16-8.46c-3-0.14-6,0-9.06-0.06
	c-1.84,0-2.53,0.75-2.46,2.53C73.77,61.9,73.71,64.02,73.7,66.13L73.7,66.13z"/>
</svg>
