<?xml version="1.0" encoding="UTF-8" standalone="no"?>
<!-- Generator: Adobe Illustrator 24.3.0, SVG Export Plug-In . SVG Version: 6.00 Build 0)  -->

<svg
   version="1.1"
   id="Laag_1"
   x="0px"
   y="0px"
   viewBox="0 0 255.99997 255.99999"
   xml:space="preserve"
   sodipodi:docname="aantal personen paars.svg"
   width="256"
   height="256"
   inkscape:version="1.1.1 (3bf5ae0d25, 2021-09-20)"
   xmlns:inkscape="http://www.inkscape.org/namespaces/inkscape"
   xmlns:sodipodi="http://sodipodi.sourceforge.net/DTD/sodipodi-0.dtd"
   xmlns="http://www.w3.org/2000/svg"
   xmlns:svg="http://www.w3.org/2000/svg"><defs
   id="defs13" /><sodipodi:namedview
   id="namedview11"
   pagecolor="#ffffff"
   bordercolor="#111111"
   borderopacity="1"
   inkscape:pageshadow="0"
   inkscape:pageopacity="0"
   inkscape:pagecheckerboard="1"
   showgrid="false"
   fit-margin-top="0"
   fit-margin-left="0"
   fit-margin-right="0"
   fit-margin-bottom="0"
   inkscape:zoom="1"
   inkscape:cx="127.5"
   inkscape:cy="127.5"
   inkscape:window-width="1920"
   inkscape:window-height="1003"
   inkscape:window-x="0"
   inkscape:window-y="0"
   inkscape:window-maximized="1"
   inkscape:current-layer="Laag_1" />
<style
   type="text/css"
   id="style2">
	.st0{fill:none;stroke:#6E6CB0;stroke-width:10.1599;stroke-miterlimit:10;}
	.st1{fill:#6E6CB0;}
</style>

<path
   class="st1"
   d="M 173.53055,143.75268 C 194.39713,128.9893 207.12104,104.80476 207.12104,79.113437 207.12104,35.492985 171.62806,0 128.0076,0 84.38715,0 48.894165,35.492985 48.894165,79.113437 c 0,25.706543 12.708681,49.891083 33.590488,64.639243 -38.521761,17.35077 -64.31962,55.62901 -65.704638,97.94055 v 3.12009 c 0,6.17931 5.007372,11.18668 11.186683,11.18668 H 227.9724 c 6.17931,0 11.18668,-5.00737 11.18668,-11.18668 v -3.12009 h 0.0609 c -1.41545,-42.31154 -27.18287,-80.605 -65.68942,-97.94055 z M 32.258731,241.678 c 1.567657,-41.18525 29.785494,-77.30226 69.722709,-88.58026 2.48086,-0.70011 5.03782,-1.30891 7.56433,-1.81117 2.63306,-0.51748 4.48989,-2.6635 4.61165,-5.34221 0.12176,-2.6635 -1.58287,-5.05304 -4.15505,-5.81404 -2.40475,-0.71534 -4.7943,-1.56766 -7.09251,-2.55695 -23.408323,-10.09085 -38.536979,-33.02736 -38.536979,-58.459933 0,-35.082046 28.537456,-63.619501 63.619509,-63.619501 35.08204,0 63.61949,28.537455 63.61949,63.619501 0,25.432573 -15.12865,48.369083 -38.5522,58.459933 -2.29822,0.98929 -4.67253,1.85683 -7.09251,2.55695 -2.57217,0.761 -4.27681,3.15054 -4.13984,5.81404 0.12176,2.67871 1.97861,4.82473 4.61166,5.34221 2.54173,0.50226 5.08347,1.11106 7.56432,1.81117 39.93722,11.29322 68.13984,47.41023 69.7075,88.58026 z"
   id="path6"
   style="stroke-width:1.522" />
<line
   class="st1"
   x1="32.273972"
   y1="241.67799"
   x2="223.72603"
   y2="241.67799"
   id="line8"
   style="stroke-width:1.522" />
</svg>
