<?xml version="1.0" encoding="utf-8"?>
<!-- Generator: Adobe Illustrator 24.3.0, SVG Export Plug-In . SVG Version: 6.00 Build 0)  -->
<svg version="1.1" id="placeholder_paars_xA0_Afbeelding_1_"
	 xmlns="http://www.w3.org/2000/svg" xmlns:xlink="http://www.w3.org/1999/xlink" x="0px" y="0px" viewBox="0 0 513 513"
	 style="enable-background:new 0 0 513 513;" xml:space="preserve">
<style type="text/css">
	.st0{fill:#FFFFFF;}
</style>
<g>
	<path class="st0" d="M272.1,15.37c6.71,1.24,13.45,2.33,20.13,3.73c66.18,13.85,118.86,67.08,131.5,133.43
		c8.16,42.8,1.03,83.19-21.32,120.63c-43.08,72.19-86.37,144.27-129.56,216.39c-7.26,12.13-19.41,12.27-26.82,0.33
		c-44.33-71.44-88.66-142.88-132.99-214.31c-18.97-30.56-27.53-63.85-25.75-99.71c3.64-73.33,56.46-137.38,128.05-155.33
		c7.74-1.94,15.74-2.82,23.61-4.23c1.01-0.18,1.96-0.62,2.95-0.94C251.97,15.37,262.04,15.37,272.1,15.37z M259.06,457.08
		c0.67-0.94,0.97-1.31,1.21-1.71c39.73-66.31,79.71-132.47,119.06-199.01c19.43-32.85,24.22-68.43,15.06-105.47
		C376.74,79.45,307.33,33.94,234.25,45.44c-98.13,15.44-150.44,127.19-98.89,212.07c31.16,51.3,63.17,102.08,94.81,153.09
		C239.68,425.94,249.22,441.26,259.06,457.08z"/>
	<path class="st0" d="M257.27,100.32c46.73,0.08,84.74,38.29,84.68,85.13c-0.06,47.13-38.14,84.91-85.44,84.77
		c-46.77-0.14-84.56-38.31-84.46-85.3C172.16,138.22,210.42,100.24,257.27,100.32z M256.83,241.99
		c31.29,0.05,56.76-25.24,56.83-56.45c0.07-31.3-25.22-56.89-56.32-56.99c-31.28-0.1-56.94,25.21-57.05,56.26
		C200.18,216.43,225.39,241.94,256.83,241.99z"/>
</g>
</svg>
