<svg id="Layer_1" data-name="Layer 1" xmlns="http://www.w3.org/2000/svg" viewBox="0 0 425.2 425.2"><path d="M332.48,183.17a9.81,9.81,0,0,0-.56-3.27,19.9,19.9,0,0,0-19.23-13.4H299.6V131.78a9.44,9.44,0,0,0,0-2.19,9,9,0,0,0-10-7.74H277.32V105.67A12.6,12.6,0,0,0,268,92.54a8.84,8.84,0,0,0-2.53-.45H159.84a9.51,9.51,0,0,0-4.1.94A12.73,12.73,0,0,0,148,105.44v16.41H136c-7,0-10.39,3.39-10.39,10.33v34.36H114.92A20.16,20.16,0,0,0,96.74,174l0,.05a22,22,0,0,0-4.1,13L93,272a11.37,11.37,0,0,0,1,4.84,19.8,19.8,0,0,0,18.26,11.61H148v1.12c0,2.82,0,5.65,0,8.47,0,6.34.11,12.89-.11,19.3a14.12,14.12,0,0,0,8.52,15.17,7.83,7.83,0,0,0,3,.61H265a11.47,11.47,0,0,0,5.36-1.33,12.41,12.41,0,0,0,6.8-9.31,15,15,0,0,0,.17-2.58V288.49h34A19.74,19.74,0,0,0,331,277.21a15.46,15.46,0,0,0,1.6-6.9ZM267.07,258.9V319c0,3.32-.49,3.81-3.81,3.81H162.12c-3.32,0-3.82-.49-3.82-3.81V258.9ZM136.14,166.49V132.36h11.65v34.13Zm22.16-.11V106.26c0-3.32.5-3.82,3.81-3.82H263.24c3.33,0,3.83.5,3.83,3.81v60.13Zm119.22,0V132.22h11.67v34.17Zm45.37,101.22a10.42,10.42,0,0,1,0,1.58,9.76,9.76,0,0,1-10.5,8.95H277.55V258.71h5c3.74,0,6.06-2,6.06-5.13s-2.38-5.15-6.06-5.15H143c-3.68,0-6.06,2-6.06,5.15s2.39,5.13,6.07,5.13h4.94l0,19.4-.86,0H113a9.9,9.9,0,0,1-1.54,0,9.78,9.78,0,0,1-8.94-10.53V187.37a10,10,0,0,1,0-1.73,9.79,9.79,0,0,1,10.65-8.83H312.23a9.51,9.51,0,0,1,1.77,0,9.79,9.79,0,0,1,8.89,10.58v80.23Z" fill="#341a4d"/><path d="M276,181.45h0a12.69,12.69,0,0,0-12.61,12.44V194a12.61,12.61,0,0,0,12.56,12.62h0a12.59,12.59,0,0,0,0-25.17Zm0,14.83a2.29,2.29,0,0,1-.08-4.58v0h0a2.33,2.33,0,0,1,2.33,2.19V194A2.3,2.3,0,0,1,276,196.28Z" fill="#341a4d"/><path d="M305.89,181.46h-.18a12.59,12.59,0,0,0-.07,25.17h.07a12.6,12.6,0,0,0,12.59-12.51h0A12.73,12.73,0,0,0,305.89,181.46Zm-.17,14.88a2.32,2.32,0,0,1-1.61-.69,2.3,2.3,0,0,1,1.68-3.89,2.31,2.31,0,0,1,2.23,1.93v.37a2.31,2.31,0,0,1-2.24,2.28h0Z" fill="#341a4d"/><path d="M174.59,277.18a11.45,11.45,0,0,0,1.85.15l.73,0h74.77a13.34,13.34,0,0,0,2.36-.08,5.12,5.12,0,0,0,0-10.15,13.93,13.93,0,0,0-2.33-.06H177.18a12.32,12.32,0,0,0-2.63.12,5.14,5.14,0,0,0-4.07,4.08,5.09,5.09,0,0,0,4.11,6Z" fill="#341a4d"/><path d="M174.59,295.77a11.15,11.15,0,0,0,2.58.13h74.77c.26,0,.53,0,.79,0a13.6,13.6,0,0,0,1.56-.09,5.11,5.11,0,0,0,4.41-4.41,5.11,5.11,0,0,0-4.42-5.73,11.55,11.55,0,0,0-2.35-.06H214.79l-37.61,0a11.72,11.72,0,0,0-2.63.13,5.12,5.12,0,0,0-4.07,4.07,5.09,5.09,0,0,0,4.11,6Z" fill="#341a4d"/><path d="M254.28,304.3a13.19,13.19,0,0,0-2.35-.06H177.18a11.82,11.82,0,0,0-2.64.12,5.08,5.08,0,0,0-4.06,4.06,5.14,5.14,0,0,0,4.11,6,11.11,11.11,0,0,0,1.83.15l.76,0h74.76a13.22,13.22,0,0,0,2.35-.07,5.12,5.12,0,0,0,0-10.15Z" fill="#341a4d"/></svg>