<svg id="Layer_1" data-name="Layer 1" xmlns="http://www.w3.org/2000/svg" viewBox="0 0 425.2 425.2"><path d="M395.25,254.65c.07-38.67.07-77.89,0-116.55a53.1,53.1,0,0,0-1.11-11.19,43.34,43.34,0,0,0-44.09-34.79h-278A43.8,43.8,0,0,0,30,137.39c-.14,26.29-.09,53-.05,78.84Q30,236,30,255.66c0,1.15,0,2.34,0,3.59v.07a43.88,43.88,0,0,0,46.15,41.53c1.2-.07,2.45-.05,3.77,0h.19V316a14.55,14.55,0,0,0,0,2.38A16,16,0,0,0,97.24,333h41.13a16.3,16.3,0,0,0,2.88,0,16,16,0,0,0,14.3-17.3V301.19h110v13.9a16.05,16.05,0,0,0,0,3.1v.23l0,.11a16.29,16.29,0,0,0,17.68,14.4h39.39a15.48,15.48,0,0,0,2.35.17,16.19,16.19,0,0,0,2.5-.19,16.61,16.61,0,0,0,13.89-18.71V300.8h.68c2.06,0,4,0,5.93-.06a69,69,0,0,0,10.71-.61A43.78,43.78,0,0,0,395.25,254.65Zm-72.35,60h-39V301h39Zm54.21-59.36A25.49,25.49,0,0,1,368,277a25.36,25.36,0,0,1-18.65,5.84H210.65q-18.47,0-36.93-.06c-31.88-.07-64.84-.14-97.23.23H74.24A27.29,27.29,0,0,1,48,254.6c.41-27.74.33-55.94.25-83.22q0-16.69-.06-33.38v-.18a24.05,24.05,0,0,1,0-4.49A25.67,25.67,0,0,1,73.73,110c.79,0,1.58,0,2.38.11H349.22a24.06,24.06,0,0,1,4.41,0h.23a25.67,25.67,0,0,1,23.25,27.82V255.27Zm-239.88,45.6v13.75H98.41V300.87Z" fill="#341a4d"/><path d="M287,132.93h-.39a64.68,64.68,0,0,0,.37,129.35h.38A64.68,64.68,0,0,0,287,132.93Zm-.53,110.7A46.54,46.54,0,0,1,240,197v-.13a46.67,46.67,0,0,1,46.69-46.61h.09a46.7,46.7,0,0,1-.08,93.39h-.25Z" fill="#341a4d"/><path d="M188.66,145.07a26.38,26.38,0,0,0-4.58-.34h-97l-1,0c-1.83-.05-3.91-.11-5.38,1.1-2.52,2-5.43,4.74-5.53,7.76-.08,2.36,1.5,5,5,8.15,1.47,1.34,3.64,1.29,5.56,1.25h50l48.71.06,1,0a22.57,22.57,0,0,0,3.18-.23,8.65,8.65,0,0,0,7.78-8.85A8.53,8.53,0,0,0,188.66,145.07Z" fill="#341a4d"/><path d="M192.94,227.68l-.21-.16a11.51,11.51,0,0,0-7.64-2.08c-28.35,0-57.27-.06-86-.06-1.64,0-3.28,0-4.91,0-3.22,0-6.55-.06-9.84,0a7.08,7.08,0,0,0-1,0,9,9,0,0,0-8.47,9.4c.25,5.19,4.22,8.54,10.11,8.54H135.4l13.89,0h37.37c5.15,0,8.57-2.5,9.16-6.68v-.12a12.06,12.06,0,0,0-2.72-8.68Z" fill="#341a4d"/><path d="M185.62,185.21H136.07q-25.2,0-50.41,0C79,185.19,75,188.47,74.87,194a8.43,8.43,0,0,0,2.34,6.25c1.88,1.92,4.73,2.94,8.22,2.94h100.4c3.51,0,6.35-1,8.22-2.91a8.44,8.44,0,0,0,2.33-6.24C196.28,188.49,192.26,185.21,185.62,185.21Z" fill="#341a4d"/><path d="M290.67,180.61a6.86,6.86,0,0,0,1,0,9.08,9.08,0,0,0,8.23-9.81l-.06-.6a8.94,8.94,0,0,0-10-7.61,33.57,33.57,0,0,0-32.42,31.54v0c-.3,9,4.9,10.7,8,10.93l.83,0c5,0,8.36-3.43,9.05-9.32v-.2a15.32,15.32,0,0,1,15.26-15Z" fill="#341a4d"/></svg>