<?xml version="1.0" encoding="UTF-8" standalone="no"?>
<svg
   id="Layer_1"
   data-name="Layer 1"
   viewBox="0 0 425.2 425.2"
   version="1.1"
   sodipodi:docname="velo-01.svg"
   inkscape:version="1.1.2 (0a00cf5339, 2022-02-04)"
   xmlns:inkscape="http://www.inkscape.org/namespaces/inkscape"
   xmlns:sodipodi="http://sodipodi.sourceforge.net/DTD/sodipodi-0.dtd"
   xmlns="http://www.w3.org/2000/svg"
   xmlns:svg="http://www.w3.org/2000/svg">
  <defs
     id="defs7" />
  <sodipodi:namedview
     id="namedview5"
     pagecolor="#ffffff"
     bordercolor="#111111"
     borderopacity="1"
     inkscape:pageshadow="0"
     inkscape:pageopacity="0"
     inkscape:pagecheckerboard="1"
     showgrid="false"
     inkscape:zoom="1.817968"
     inkscape:cx="212.60001"
     inkscape:cy="212.32497"
     inkscape:window-width="1920"
     inkscape:window-height="1008"
     inkscape:window-x="0"
     inkscape:window-y="0"
     inkscape:window-maximized="1"
     inkscape:current-layer="Layer_1" />
  <path
     d="M412,199.63a87.41,87.41,0,0,0-104.4-38,5.46,5.46,0,0,1-1.34.34,4.76,4.76,0,0,1-.54-1c-3.92-9-8.13-18-12.1-26.31l-.12-.23a2.36,2.36,0,0,1,.1-2.55l.09-.15c3.42-5.56,6.6-11.15,9.54-16.41a4.46,4.46,0,0,1,2.61-2.15l.19-.07a63,63,0,0,1,18.9-4.18c6.26-.18,8.62-2.52,8.72-8.63A8,8,0,0,0,331.48,94c-1.59-1.52-3.86-2.18-6.94-2-14.92.92-30.41.49-44,.11a21.35,21.35,0,0,0-11.38,2.52l-.11.06c-1.3.74-4,2.29-3.91,5.68.1,3.58,3.16,5,4.47,5.55l.13,0A38.19,38.19,0,0,0,280,108.5a14.66,14.66,0,0,1,8.17,3.17l0,0c-2.6,4.16-4.92,8-6.94,12l-.07.15a3.29,3.29,0,0,1-3.44,2l-.39,0c-23.32,0-47.12-.08-70.74-.08H184.22c-16.11,0-32.77,0-49.13,0h-.45l.06-.16c1.69-4.56,3.2-9.24,4.65-13.77.66-2,1.32-4.1,2-6.13.45-1.34,1.84-5.44-.33-8.46s-6.49-3-7.91-3c-2.87,0-5.75,0-8.63,0-5.67,0-11.53-.08-17.32,0a47.29,47.29,0,0,0-21.89,4.9A16.62,16.62,0,0,0,75.3,114a17,17,0,0,0,9.33,15.23A41.42,41.42,0,0,0,100.9,134a9,9,0,0,0,6.87-1.36,7.15,7.15,0,0,0,2.72-5,7,7,0,0,0-1.32-5.44c-1.34-1.68-3.49-2.65-6.57-3h-.18a24.41,24.41,0,0,1-10.3-2.76c-1.57-.94-2-1.73-2-2s.42-1.08,1.95-2a17.41,17.41,0,0,1,5.62-2,154.72,154.72,0,0,1,26.61-1.22C119,125.72,113.62,142.48,108.4,159l0,0h0a66.38,66.38,0,0,0-10.71-1.87,86.08,86.08,0,0,0-82.28,39,84.83,84.83,0,0,0-5.06,89.29,88,88,0,0,0,76.46,47.72c.63,0,1.27,0,1.9,0a88.09,88.09,0,0,0,88-86.19,86.62,86.62,0,0,0-53.23-83,7.09,7.09,0,0,1-1-.57,4.54,4.54,0,0,1,.19-.62c1.11-2.89,2-5.84,2.94-8.7.51-1.65,1-3.29,1.59-4.93l.15-.5c.13.18.28.36.43.53,27.55,32.16,55.37,64.78,82.68,97a15.61,15.61,0,0,0,13.22,6.21c3.63-.12,7.35-.09,11-.06,4,0,8,.07,12.1-.1h.47a3.12,3.12,0,0,1,1.2.13,4.52,4.52,0,0,1,.46,1.93,87.29,87.29,0,0,0,82.27,78.53q3.72.33,7.41.33a84.21,84.21,0,0,0,73.1-42.56A84,84,0,0,0,412,199.63ZM103.73,173.36c-3.83,11.66-7.62,23.53-11.29,35l-2.94,9.19-1.74,5.53c-.67,2.14-1.35,4.27-2,6.4l-.1.42a10.64,10.64,0,0,1-4.29,6.94l-.09.07a10.38,10.38,0,0,0-2.05,14.2,11.13,11.13,0,0,0,13.52,4.5,12.34,12.34,0,0,0,6.62-6.57,8.14,8.14,0,0,0,0-6.28,11.92,11.92,0,0,1,.6-9.15l.17-.43q3.11-9.7,6.24-19.41c3.74-11.62,7.62-23.64,11.34-35.49.08-.25.16-.45.22-.61a6.56,6.56,0,0,1,.63.27,73.3,73.3,0,1,1-43.4-5.16,87.23,87.23,0,0,1,13.31-1.21H89A93.57,93.57,0,0,1,103.69,173l.15,0Zm221,64.07-30.16,0h-8.69c-7.16,0-14.55-.05-21.85.07h-.63c0-.2,0-.45.09-.78a73.8,73.8,0,0,1,34.93-54.56c.3-.2.54-.33.72-.43a8,8,0,0,1,.37.73c5.78,12.86,11.8,25.84,17.61,38.39q3.86,8.31,7.69,16.62Zm-60.68,14.79c7.46.13,15,.11,22.29.08h5.73v.08h33.36a4.91,4.91,0,0,1,3.73,1.3,11.44,11.44,0,0,0,1.62,1.22l.07,0a10.88,10.88,0,0,0,14.87-3.5,11.19,11.19,0,0,0,.95-1.66,10.9,10.9,0,0,0-5.2-14.47,5.33,5.33,0,0,1-2.61-2.82l-4.65-10.1c-7-15.16-14.21-30.84-21.42-46.2-.13-.27-.22-.49-.29-.66a5.33,5.33,0,0,1,.57-.22c1.34-.44,2.71-.85,4-1.21l.14,0a73.61,73.61,0,0,1,90.05,51.87c.4,1.53.72,2.91,1,4.24A73.54,73.54,0,0,1,351,316.82c-2.06.41-4.18.74-6.34,1a73.57,73.57,0,0,1-81.22-64.88c0-.28-.06-.51-.07-.69Zm28.21-83.73a88.29,88.29,0,0,0-26.72,24.1,83.82,83.82,0,0,0-16.63,42.53,4.74,4.74,0,0,1-.5,2.2,3.73,3.73,0,0,1-1.82.12c-2.56-.15-5.14-.22-7.71-.22q-3.39,0-6.73.16c15.49-26.52,31.14-53.38,46.52-79.82l5.14-8.77c3.16,6.89,6.08,13.17,9,19.37l-.08.05ZM271.32,140.6l-.06.1c-17.7,30.29-35.56,61-53.12,91.39a.64.64,0,0,1-.08.14l-.11-.12c-25.72-30.23-52-61-78-91.51h131.4Z"
     fill="#341a4d"
     id="path2"
     style="fill:#000000" />
</svg>
