<?xml version="1.0" encoding="UTF-8" standalone="no"?>
<svg
   id="Laag_1"
   data-name="Laag 1"
   viewBox="0 0 255.99999 256.00001"
   version="1.1"
   sodipodi:docname="wifi_symbool.svg"
   width="256"
   height="256"
   inkscape:version="1.1.1 (3bf5ae0d25, 2021-09-20)"
   xmlns:inkscape="http://www.inkscape.org/namespaces/inkscape"
   xmlns:sodipodi="http://sodipodi.sourceforge.net/DTD/sodipodi-0.dtd"
   xmlns="http://www.w3.org/2000/svg"
   xmlns:svg="http://www.w3.org/2000/svg">
  <sodipodi:namedview
     id="namedview15"
     pagecolor="#ffffff"
     bordercolor="#111111"
     borderopacity="1"
     inkscape:pageshadow="0"
     inkscape:pageopacity="0"
     inkscape:pagecheckerboard="1"
     showgrid="false"
     fit-margin-top="0"
     fit-margin-left="0"
     fit-margin-right="0"
     fit-margin-bottom="0"
     inkscape:zoom="1"
     inkscape:cx="70.5"
     inkscape:cy="55.5"
     inkscape:window-width="1920"
     inkscape:window-height="1003"
     inkscape:window-x="0"
     inkscape:window-y="0"
     inkscape:window-maximized="1"
     inkscape:current-layer="Laag_1" />
  <defs
     id="defs4">
    <style
       id="style2">.cls-1{fill:#8669ac;}</style>
  </defs>
  <g
     id="g836"
     transform="translate(0,27.33021)">
    <path
       class="cls-1"
       d="m 127.59862,0.0097408 a 171.35134,171.35134 0 0 1 33.6029,3.0302132 178.56614,178.56614 0 0 1 36.25434,10.732005 186.03345,186.03345 0 0 1 22.22156,11.056671 182.62446,182.62446 0 0 1 23.61041,16.413655 130.29917,130.29917 0 0 1 10.82219,9.649786 6.9983496,6.9983496 0 0 1 1.3167,7.557496 6.7458319,6.7458319 0 0 1 -5.86202,4.256728 7.8641249,7.8641249 0 0 1 -6.22276,-2.453029 A 177.24944,177.24944 0 0 0 227.23492,46.797676 169.54765,169.54765 0 0 0 206.76294,33.829085 168.48346,168.48346 0 0 0 166.48636,18.569797 157.49894,157.49894 0 0 0 144.40909,14.9624 185.11356,185.11356 0 0 0 125.70474,14.168772 165.41718,165.41718 0 0 0 91.109803,18.245131 173.60597,173.60597 0 0 0 69.880273,24.503964 160.09627,160.09627 0 0 0 49.552593,33.522456 162.33285,162.33285 0 0 0 28.3411,46.941972 192.11191,192.11191 0 0 0 11.855297,60.812412 7.2147935,7.2147935 0 0 1 1.6283274,60.469709 7.737866,7.737866 0 0 1 2.4219546,50.098444 C 7.4181991,45.679383 12.360332,41.206211 17.663206,37.165927 A 192.02173,192.02173 0 0 1 35.068895,25.42385 174.95874,174.95874 0 0 1 64.162549,11.355003 179.25154,179.25154 0 0 1 103.03225,1.5789583 165.02036,165.02036 0 0 1 127.59862,0.0097408 Z"
       id="path6"
       style="stroke-width:1.8037" />
    <path
       class="cls-1"
       d="m 124.80289,53.940321 a 137.1893,137.1893 0 0 1 36.41667,4.310839 127.30503,127.30503 0 0 1 39.68136,18.451835 136.57604,136.57604 0 0 1 16.23329,13.383442 7.4673112,7.4673112 0 0 1 1.91192,8.54953 c -2.09229,4.851953 -8.5315,5.086433 -11.65189,1.911923 A 105.22776,105.22776 0 0 0 192.33335,88.066294 110.90941,110.90941 0 0 0 173.64704,77.622881 112.87544,112.87544 0 0 0 145.52738,69.416053 116.71732,116.71732 0 0 0 130.28613,68.045243 114.62503,114.62503 0 0 0 93.508722,73.312042 112.67704,112.67704 0 0 0 60.627301,89.996252 103.27977,103.27977 0 0 0 48.217856,100.56592 7.1065716,7.1065716 0 1 1 37.954812,90.753805 96.15516,96.15516 0 0 1 48.975409,80.97776 121.91197,121.91197 0 0 1 64.649548,70.462198 125.75385,125.75385 0 0 1 108.38923,55.329169 120.25257,120.25257 0 0 1 124.80289,53.940321 Z"
       id="path8"
       style="stroke-width:1.8037" />
    <path
       class="cls-1"
       d="m 127.76095,107.94305 a 73.19408,73.19408 0 0 1 36.25434,9.39727 77.180253,77.180253 0 0 1 17.20728,13.32933 7.0524606,7.0524606 0 0 1 2.38088,5.41109 6.9081647,6.9081647 0 0 1 -3.60739,5.8981 c -4.13047,2.02014 -6.52939,1.19044 -9.97445,-2.23659 a 56.076982,56.076982 0 0 0 -15.43966,-10.93041 61.704521,61.704521 0 0 0 -43.54128,-3.78777 56.455759,56.455759 0 0 0 -26.1897,15.47574 7.2147935,7.2147935 0 0 1 -11.796188,-1.26259 8.0444947,8.0444947 0 0 1 0.577184,-7.50339 c 0.468961,-0.70344 1.803698,-0.95596 1.280626,-2.25462 0,0 0,0 0.09018,-0.0902 3.40899,-1.60529 5.663613,-4.6355 8.621679,-6.81798 a 73.951633,73.951633 0 0 1 34.883529,-14.05081 62.678518,62.678518 0 0 1 9.25297,-0.57718 z"
       id="path10"
       style="stroke-width:1.8037" />
    <path
       class="cls-1"
       d="m 127.86917,201.33855 a 19.083129,19.083129 0 0 1 -19.24546,-19.29957 19.281536,19.281536 0 1 1 38.54504,0.18037 19.101166,19.101166 0 0 1 -19.29958,19.1192 z"
       id="path12"
       style="stroke-width:1.8037" />
  </g>
</svg>
