<svg id="Layer_1" data-name="Layer 1" xmlns="http://www.w3.org/2000/svg" viewBox="0 0 425.2 425.2"><path d="M362.45,152.46a197.14,197.14,0,0,0-14.9-13,211.47,211.47,0,0,0-28-19A218,218,0,0,0,216,92.1h0a236.2,236.2,0,0,0-39,3,213.65,213.65,0,0,0-49.7,14.54A208.51,208.51,0,0,0,98,124.92,224.2,224.2,0,0,0,63.12,152a10,10,0,0,0-3.2,5.84,9.41,9.41,0,0,0,5,10,9.73,9.73,0,0,0,10.61-1.22l.06-.06a207.11,207.11,0,0,1,25.49-20.75,193.5,193.5,0,0,1,37.08-20A200.28,200.28,0,0,1,194.65,112a231.44,231.44,0,0,1,29.56-.42,191.09,191.09,0,0,1,34.14,5,194,194,0,0,1,35.77,12.28,200.7,200.7,0,0,1,32.94,18.91,196.47,196.47,0,0,1,22.47,18.64l.05.05A9.67,9.67,0,0,0,360,168a9.54,9.54,0,0,0,2.47-15.54Z" fill="#341a4d"/><path d="M319.49,199.66A152.83,152.83,0,0,0,252.2,161.3a160.82,160.82,0,0,0-39.89-5.21h0a160,160,0,0,0-34.94,4.07,153.66,153.66,0,0,0-33.81,12.38,157.14,157.14,0,0,0-18.45,11.06,149.39,149.39,0,0,0-19.8,16.52,9.63,9.63,0,0,0,.19,13.45,9.52,9.52,0,0,0,13.48-.13,129,129,0,0,1,15.21-12.88,134.24,134.24,0,0,1,102.63-23.2,132.59,132.59,0,0,1,69.46,36.13,9.23,9.23,0,0,0,5.92,2.78,8.38,8.38,0,0,0,.86,0,9.6,9.6,0,0,0,6.45-16.65Z" fill="#341a4d"/><path d="M253.37,230a89.27,89.27,0,0,0-42-9.93h0a88.24,88.24,0,0,0-12.47,1.13,98.34,98.34,0,0,0-11.59,2.58,88.75,88.75,0,0,0-36.62,21.58,16.22,16.22,0,0,0-4.41,5.68l0,.11A9.38,9.38,0,0,0,150,262.27,9.57,9.57,0,0,0,162,261c.56-.54,1.11-1.09,1.66-1.64a45.36,45.36,0,0,1,3.61-3.37,69.32,69.32,0,0,1,26.38-13.56,71.63,71.63,0,0,1,52,5.36,67.23,67.23,0,0,1,17.9,13.37,9.31,9.31,0,0,0,11.23,1.49,9.79,9.79,0,0,0,2.4-1.94,9.69,9.69,0,0,0-.7-13.64A92.47,92.47,0,0,0,253.37,230Z" fill="#341a4d"/><path d="M212.61,285.24h-.06a24,24,0,0,0-23.89,23.67V309h0a23.85,23.85,0,0,0,23.55,24.07h.41a23.88,23.88,0,0,0,23.88-23.83v-.16A23.92,23.92,0,0,0,212.61,285.24Z" fill="#341a4d"/></svg>