<svg id="Laag_1" data-name="Laag 1" xmlns="http://www.w3.org/2000/svg" viewBox="0 0 141.88 111.63"><defs><style>.cls-1{fill:#8669ac;}</style></defs><path class="cls-1" d="M290.3,322.71a95,95,0,0,1,18.63,1.68,99,99,0,0,1,20.1,5.95,103.14,103.14,0,0,1,12.32,6.13,101.25,101.25,0,0,1,13.09,9.1,72.24,72.24,0,0,1,6,5.35,3.88,3.88,0,0,1,.73,4.19,3.74,3.74,0,0,1-3.25,2.36,4.36,4.36,0,0,1-3.45-1.36,98.27,98.27,0,0,0-8.93-7.46,94,94,0,0,0-11.35-7.19A93.41,93.41,0,0,0,311.86,333a87.32,87.32,0,0,0-12.24-2,102.63,102.63,0,0,0-10.37-.44,91.71,91.71,0,0,0-19.18,2.26,96.25,96.25,0,0,0-11.77,3.47,88.76,88.76,0,0,0-11.27,5,90,90,0,0,0-11.76,7.44,106.51,106.51,0,0,0-9.14,7.69,4,4,0,0,1-5.67-.19,4.29,4.29,0,0,1,.44-5.75c2.77-2.45,5.51-4.93,8.45-7.17A106.46,106.46,0,0,1,239,336.8,97,97,0,0,1,255.13,329a99.38,99.38,0,0,1,21.55-5.42A91.49,91.49,0,0,1,290.3,322.71Z" transform="translate(-219.56 -322.7)"/><path class="cls-1" d="M288.75,352.61A76.06,76.06,0,0,1,308.94,355a70.58,70.58,0,0,1,22,10.23,75.72,75.72,0,0,1,9,7.42,4.14,4.14,0,0,1,1.06,4.74c-1.16,2.69-4.73,2.82-6.46,1.06a58.34,58.34,0,0,0-8.35-6.92,61.49,61.49,0,0,0-10.36-5.79,62.58,62.58,0,0,0-15.59-4.55,64.71,64.71,0,0,0-8.45-.76,63.55,63.55,0,0,0-20.39,2.92,62.47,62.47,0,0,0-18.23,9.25,57.26,57.26,0,0,0-6.88,5.86,3.94,3.94,0,1,1-5.69-5.44,53.31,53.31,0,0,1,6.11-5.42,67.59,67.59,0,0,1,8.69-5.83,69.72,69.72,0,0,1,24.25-8.39A66.67,66.67,0,0,1,288.75,352.61Z" transform="translate(-219.56 -322.7)"/><path class="cls-1" d="M290.39,382.55a40.58,40.58,0,0,1,20.1,5.21,42.79,42.79,0,0,1,9.54,7.39,3.91,3.91,0,0,1,1.32,3,3.83,3.83,0,0,1-2,3.27c-2.29,1.12-3.62.66-5.53-1.24a31.09,31.09,0,0,0-8.56-6.06,34.21,34.21,0,0,0-24.14-2.1,31.3,31.3,0,0,0-14.52,8.58,4,4,0,0,1-6.54-.7,4.46,4.46,0,0,1,.32-4.16c.26-.39,1-.53.71-1.25,0,0,0,0,.05-.05,1.89-.89,3.14-2.57,4.78-3.78a41,41,0,0,1,19.34-7.79A34.75,34.75,0,0,1,290.39,382.55Z" transform="translate(-219.56 -322.7)"/><path class="cls-1" d="M290.45,434.33a10.58,10.58,0,0,1-10.67-10.7,10.69,10.69,0,1,1,21.37.1A10.59,10.59,0,0,1,290.45,434.33Z" transform="translate(-219.56 -322.7)"/></svg>