<svg id="Laag_1" data-name="Laag 1" xmlns="http://www.w3.org/2000/svg" viewBox="0 0 502.89 503.07"><defs><style>.cls-1{fill:#fff;}</style></defs><path class="cls-1" d="M558.53,501.83q-61.21-61-122.29-122.22c-1.27-1.27-2.6-2.47-3.63-3.45,6.56-10.73,13.49-20.84,19.19-31.6,60.95-115.17-5-260-131.88-289.7-9.67-2.27-19.63-3.29-29.45-4.94-.51-.08-1-.61-1.42-.94H254.67c-7.28,1.32-14.56,2.62-21.83,4-79,14.61-144.91,80.48-159,159.7-12.56,70.74,6.37,132.29,57.06,183.15,34.11,34.21,76.13,53,124.34,57,51.7,4.33,98.29-9.61,139.81-40.65a14.92,14.92,0,0,1,1.51-.87c1.26,1.2,2.55,2.38,3.8,3.63Q464.43,479,528.51,543.07c14.69,14.68,34.65,10.93,43.07-8a9.17,9.17,0,0,1,1.4-1.76V521.54C570.26,513.44,564.41,507.68,558.53,501.83ZM271.84,403.52c-84-.62-152-69-151.73-152.52.31-83.71,68.85-151.9,152.5-151.73,84,.16,152.44,68.94,151.91,152.75C424,336,355.31,404.13,271.84,403.52Z" transform="translate(-70.1 -48.98)"/></svg>