<svg id="Layer_1" data-name="Layer 1" xmlns="http://www.w3.org/2000/svg" viewBox="0 0 425.2 425.2"><path d="M323.43,125.16H309.37v-3.72a90.59,90.59,0,0,0-.66-13.47,19.92,19.92,0,0,0-20.64-15.83H160l-8.05,0c-5.27,0-10.72-.05-16,0A20,20,0,0,0,116,110.9a111.54,111.54,0,0,0-.19,11.42,3,3,0,0,1-.55,2.29,3.07,3.07,0,0,1-2.4.55c-2.52-.08-5.1,0-7.6,0-1.25,0-2.55,0-3.82,0-5.53,0-7.13,1.57-7.13,7v63.75c0,5.63,1.57,7.17,7.3,7.17h13.81c0,.81.1,1.49.14,2.09,0,.34,0,.67.07,1q.09,41.43.21,82.85c0,.59,0,1.19.06,1.78s.06,1.17.06,1.74a20.22,20.22,0,0,0,13.3,18.77,3.31,3.31,0,0,1,1.61,2.43c.16,2.05.13,4.17.11,6.21,0,.77,0,1.54,0,2.3a11,11,0,0,0,0,1.15,10.25,10.25,0,0,0,10.78,9.66h20.85c.3,0,.61,0,.91,0s.61,0,.92,0a10,10,0,0,0,9-10.88v-9.45H251.7c0,1.2,0,2.39,0,3.54-.05,2.37-.1,4.6,0,6.87v.62a10,10,0,0,0,10.66,9.31c7,0,14.15,0,21.16,0h.92a10.22,10.22,0,0,0,9.78-10.59c0-1.23,0-2.48,0-3.68,0-1.68,0-3.42.07-5.11a3.08,3.08,0,0,1,1.4-2.28,21,21,0,0,0,13.76-21.53c.06-27.59.08-55.66.08-83.44V203.1h14c5.73,0,7.3-1.55,7.3-7.17V132.47C330.86,126.59,329.4,125.16,323.43,125.16Zm-3.09,10.48v56.81H309.72V135.64ZM283.87,321.32a2.34,2.34,0,0,1-1.72,1.48c-6.6.06-13.14.06-20.06.06V312.63H284c0,.73,0,1.45,0,2.16C284,317.05,284,319.17,283.87,321.32Zm14.79-185.55V245.92l-80.71,0V135.77Zm-91.51.06v110H126.4v-110ZM126.49,109.9a9.52,9.52,0,0,1,9.06-7.69,22.83,22.83,0,0,1,2.34,0H287.14a10.86,10.86,0,0,1,9.21,3.4,9.05,9.05,0,0,1,2.34,4.51c.23,3.51.19,6.95.15,10.6,0,1.36,0,2.76,0,4.16l-172.43-.07c0-1.54,0-3.08-.07-4.57A84.29,84.29,0,0,1,126.49,109.9ZM298.91,293.76A9.63,9.63,0,0,1,288.08,302c-10.24,0-20.65.08-30.72.12-17.06.08-34.71.16-52.07.16-17.1,0-34.48-.1-51.3-.19l-18.28-.1a9.06,9.06,0,0,1-9.4-8.13c-.16-8.92-.14-17.6-.1-26.8,0-3.49,0-7.1,0-10.69h172.7v35A9.34,9.34,0,0,1,298.91,293.76ZM163,312.63V322.8h-3.86c-5.55,0-11.29,0-16.85-.08-.38,0-1.2-1.05-1.2-1.68-.1-2-.09-4-.07-6,0-.77,0-1.56,0-2.37ZM115.31,135.7v56.77H104.64V135.7Z" fill="#341a4d"/><path d="M157.34,264.24h-.08a15,15,0,0,0,.08,30h.17a14.84,14.84,0,0,0,14.68-15V279h0A14.79,14.79,0,0,0,157.34,264.24Zm-.17,20a5,5,0,1,1,0-10h.34a4.81,4.81,0,0,1,4.65,5,1,1,0,0,1,0,.24A4.88,4.88,0,0,1,157.17,284.26Z" fill="#341a4d"/><path d="M267.63,264.3h-.09A14.84,14.84,0,0,0,253,279.4v.13h0a14.83,14.83,0,0,0,14.91,14.77,15,15,0,1,0-.25-30Zm.25,20a4.88,4.88,0,0,1-4.87-4.83v-.35a4.8,4.8,0,0,1,4.8-4.8h-.05a5,5,0,1,1,.12,10Z" fill="#341a4d"/><path d="M234.89,284.3h-22q-11.26,0-22.61,0c-4,0-6.13,1.9-6.07,5.09s2.12,4.9,6,4.9h44.62c4,0,6.13-1.93,6.07-5.11S238.76,284.3,234.89,284.3Z" fill="#341a4d"/><path d="M235.08,264.28H212.5l-22.33,0c-3.89,0-5.93,1.7-6,4.87s2.09,5.14,5.81,5.14h45.18c3.58,0,5.67-1.75,5.71-4.94S238.87,264.28,235.08,264.28Z" fill="#341a4d"/></svg>