<svg id="Layer_1" data-name="Layer 1" xmlns="http://www.w3.org/2000/svg" viewBox="0 0 425.2 425.2"><g id="Rectangle_31" data-name="Rectangle 31"><path d="M370.26,235.32l-85.82,85.84a32.15,32.15,0,0,1-45.45,0l0,0-85.83-85.84a32.15,32.15,0,0,1,0-45.45l0,0L239,104a32.13,32.13,0,0,1,45.45,0l0,0,85.82,85.82a32.13,32.13,0,0,1,0,45.45Z" fill="#8769ad"/></g><g id="Path_213" data-name="Path 213"><path d="M173.66,289.88a19.33,19.33,0,0,1,0,27.31l-3.33,3.33h-.23l-.21.44a16.26,16.26,0,0,1-22.85-.12L50.27,224.06a16.24,16.24,0,0,1,0-23L147,104.32a16.27,16.27,0,0,1,23,0l3.65,3.65a19.33,19.33,0,0,1,0,27.31l-64.3,64.29a18.42,18.42,0,0,0,0,26Z" fill="#381b52"/></g></svg>