<svg id="Layer_1" data-name="Layer 1" xmlns="http://www.w3.org/2000/svg" viewBox="0 0 425.2 425.2"><path d="M101.61,163.45c.28-15.45.22-31.16.17-46.36,0-6.15,0-12.29,0-18.38a4.31,4.31,0,0,0,0-.51,6,6,0,0,0-6-6h-.34a6.08,6.08,0,0,0-4.22,2,6,6,0,0,0-1.58,4.34v41.25H85.78v-40a8.16,8.16,0,0,0-2.1-6,5.56,5.56,0,0,0-4.16-1.52c-3.74.12-5.89,2.86-5.89,7.53v40.08H69.85V99.21a7.31,7.31,0,0,0-2.26-5.65A5.79,5.79,0,0,0,63,92.25c-3.34.46-5.26,3-5.26,7v40.55H53.91V99.29a7.55,7.55,0,0,0-2.78-6.21,5.13,5.13,0,0,0-4.79-.62,7.63,7.63,0,0,0-2.65,1.72,5.9,5.9,0,0,0-2,4.4V163.2a17,17,0,0,0,1.35,6.5l0,.2a20.89,20.89,0,0,0,11.92,12.23l.09,0a3.5,3.5,0,0,1,2.56,4l0,.06V319.51c0,.12,0,.23,0,.35a14.06,14.06,0,0,0,14,13.13l.92,0a14,14,0,0,0,13.1-14.87c.07-43.88.07-88.37,0-132.23v-.11a3.15,3.15,0,0,1,2.36-3.5A20.1,20.1,0,0,0,101.61,163.45Zm-12.17-.65a9.73,9.73,0,0,1-9.51,9.09c-5.49.14-11.06.14-16.55,0a9.75,9.75,0,0,1-9.5-9.09c-.1-2.38-.07-4.75,0-7.25,0-1,0-2.06,0-3.11H89.52c0,.86,0,1.7,0,2.54C89.58,157.68,89.61,160.22,89.44,162.8ZM73.61,317.13a3.27,3.27,0,0,1,0,1,20.15,20.15,0,0,1-1.93,2.29c-.69-.68-1.35-1.4-2-2.13a3.65,3.65,0,0,1,0-.55,5.68,5.68,0,0,0,.06-.69V184.23h3.73V316.32A7.94,7.94,0,0,0,73.61,317.13Z" fill="#341a4d"/><path d="M382.89,124.16a6.72,6.72,0,0,0-.14-1.35,38,38,0,0,0-33.21-30.46c-4.06-.47-6.44-.09-8,1.26s-2.16,3.64-2.16,7.67v214.9c0,.39,0,.79,0,1.19,0,.8,0,1.64,0,2.46a13.43,13.43,0,0,0,5.41,10.2,13.27,13.27,0,0,0,8.51,3.07,13.13,13.13,0,0,0,5.85-1.36,14.66,14.66,0,0,0,8.32-13.3V226.65c.8,0,1.58,0,2.34,0a54.11,54.11,0,0,1,5.42,0,9.46,9.46,0,0,0,4.08-.48,6.33,6.33,0,0,0,4.12-6ZM351.56,317.88c0-.24,0-.47,0-.69V228.83c0-.37,0-.75,0-1.15s0-.64.06-1l3.66-.05v89.88c0,.27,0,.56.05.85a3.05,3.05,0,0,1-.07,1.39,5,5,0,0,1-1.58,1.82c-.72-.08-1.68-1.24-2.22-1.88A2.46,2.46,0,0,1,351.56,317.88Zm19.76-128.14q0,12.09,0,24.16c0,.13,0,.25-.07.38H351.83v-109a24.56,24.56,0,0,1,19.35,23C371.4,148.76,371.36,169.6,371.32,189.74Z" fill="#341a4d"/><path d="M215.35,92.09h-.1A120.53,120.53,0,0,0,94.86,212.39h0c0,66.32,53.91,120.37,120.3,120.49h.09a120.4,120.4,0,0,0,.1-240.79Zm108.12,120.6a108.22,108.22,0,1,1-108.22-108.4h.19v-.77l0,.77a108.2,108.2,0,0,1,108,108.4Z" fill="#341a4d"/><path d="M215.77,129.34h-.53a83.18,83.18,0,0,0-.13,166.35h.14a83.17,83.17,0,0,0,83.17-83h0a83.36,83.36,0,0,0-82.65-83.31Zm-1.26,12.15h.77a71,71,0,0,1,0,142h0a71,71,0,0,1-.73-142Z" fill="#341a4d"/></svg>