<svg id="Layer_1" data-name="Layer 1" xmlns="http://www.w3.org/2000/svg" viewBox="0 0 425.2 425.2"><g id="Rectangle_51" data-name="Rectangle 51"><path d="M272.22,330.79H153a13.36,13.36,0,0,1-13.35-13.34V107.74A13.36,13.36,0,0,1,153,94.4H272.23a13.36,13.36,0,0,1,13.34,13.34V317.45A13.36,13.36,0,0,1,272.22,330.79ZM154.75,315.68h115.7V109.52H154.75Z" fill="#9e7aca"/></g><g id="Path_258" data-name="Path 258"><path d="M212.6,281.47a5.58,5.58,0,1,1-5.57,5.59h0v0a5.58,5.58,0,0,1,5.57-5.57m0-15.11a20.7,20.7,0,1,0,20.69,20.7h0v0a20.69,20.69,0,0,0-20.69-20.68h0" fill="#9e7aca"/></g><g id="Path_259" data-name="Path 259"><path d="M250.33,283.78a3.27,3.27,0,1,1-3.26,3.29h0v0a3.28,3.28,0,0,1,3.26-3.25m0-8.86A12.1,12.1,0,1,0,262.42,287h0a12.09,12.09,0,0,0-12.09-12.09h0" fill="#9e7aca"/></g><g id="Path_260" data-name="Path 260"><path d="M174.87,283.78a3.27,3.27,0,1,1-3.25,3.29h0v0a3.27,3.27,0,0,1,3.25-3.25m0-8.86A12.1,12.1,0,1,0,187,287h0a12.1,12.1,0,0,0-12.1-12.09h0" fill="#9e7aca"/></g></svg>