<svg id="Layer_1" data-name="Layer 1" xmlns="http://www.w3.org/2000/svg" viewBox="0 0 425.2 425.2"><g id="Path_250" data-name="Path 250"><path d="M212.59,330.79a15.29,15.29,0,0,1-13.25-7.66l-60.65-105.3a83.29,83.29,0,0,1-11.11-32.51v0a79.61,79.61,0,0,1,25.33-68l.05,0a89.31,89.31,0,0,1,116-2.88l0,0a80.36,80.36,0,0,1,28,75.05v.06a82.55,82.55,0,0,1-10.47,28.22L225.87,323.13A15.32,15.32,0,0,1,212.59,330.79ZM141.35,183.64a69.38,69.38,0,0,0,9.29,27.13l.05.08,60.67,105.34a1.43,1.43,0,0,0,2,.52,1.37,1.37,0,0,0,.52-.52l60.78-105.45,0,0a68.78,68.78,0,0,0,8.74-23.5,66.49,66.49,0,0,0-23.19-62,75.45,75.45,0,0,0-98,2.41A65.85,65.85,0,0,0,141.35,183.64Z"/></g><g id="Path_251" data-name="Path 251"><path d="M212.59,230.18a49.7,49.7,0,1,1,49.71-49.71A49.75,49.75,0,0,1,212.59,230.18Zm0-85.51a35.81,35.81,0,1,0,35.82,35.8,35.86,35.86,0,0,0-35.82-35.8Z"/></g></svg>
