<svg id="Layer_1" data-name="Layer 1" xmlns="http://www.w3.org/2000/svg" viewBox="0 0 425.2 425.2"><path d="M332.54,299.38c0-1.29-.62-4.31-5.23-4.31H312.84c-.48,0-1,0-1.46-.06h-.13V171.33h15.92a5.64,5.64,0,0,0,4.16-1.45,5,5,0,0,0,1.26-3.69c0-2.21,0-4.47,0-6.66a151,151,0,0,0-.51-15.44A58.25,58.25,0,0,0,275,92.43c-41.2-.14-83-.14-124.22,0a58.67,58.67,0,0,0-54.81,39.88l0,.07A86.8,86.8,0,0,0,93,161.07c0,.73,0,1.4,0,2,0,3.59,0,5.57,1.26,6.88s3.73,1.4,8.8,1.34h9.36c0,.58,0,1.15,0,1.7,0,1.84,0,3.59,0,5.33,0,.79-.11,1-.11,1s-.18.14-.93.1c-2.34-.09-4.93-.09-8.13,0q-.65,0-1.32,0a10.24,10.24,0,0,0-9.41,10.93v6.57a8.51,8.51,0,0,0,0,1,10.22,10.22,0,0,0,10.2,9.84h.3a55.23,55.23,0,0,0,7.39,0c1.24-.12,1.61.08,1.71.17s.36.54.36,1.94c0,27.57-.07,55.53-.07,83.09v2l-.64.05-1.1.08H98.26a5.32,5.32,0,0,0-4,1.37A5.1,5.1,0,0,0,93,300.3a73.85,73.85,0,0,0,.16,10,32.57,32.57,0,0,0,3.24,10.81l0,.06a23.35,23.35,0,0,0,21.85,11.65H306.93c.67.06,1.34.09,2,.09a23.52,23.52,0,0,0,23.34-20.6A73.26,73.26,0,0,0,332.54,299.38Zm-8.81-148.59v11.43l-221.92-.05c-1.59-14.71,1.14-28,7.9-38.58,6.9-10.76,17.69-18.15,31.16-21.36a47.29,47.29,0,0,1,10.89-1.06c40.45-.06,81.45-.06,121.86,0h1A49.43,49.43,0,0,1,323.73,150.79ZM101.37,190a2.34,2.34,0,0,1,.39-1.52,2.07,2.07,0,0,1,1.36-.36h47.33l.28,0a1.38,1.38,0,0,1,.92.49,1.41,1.41,0,0,1,.34,1v.16c.09,2.45.09,5.08,0,7.41,0,1-.22,1.61-2.4,1.61H103.92c-2.55,0-2.55,0-2.55-2.47V194.3C101.38,192.9,101.38,191.49,101.37,190Zm151.9,74.62c-.05.15-.11.3-.16.44-.8,2.16-1.57,4.2-2.49,6.18a45.94,45.94,0,0,1-20.85,22.65A10.57,10.57,0,0,1,225.4,295c-2.37.06-4.79,0-7.14,0-3.46,0-7-.09-10.54.16a18.27,18.27,0,0,1-12.26-3.89,52.61,52.61,0,0,1-18.91-26.57Zm2-9a5.17,5.17,0,0,1-1.47,0h-.16c-12.88,0-25.84-.05-38.8-.05s-25.92,0-38.79.05c-2,0-2-.35-2.07-1.36-.2-3.84-.44-7.63-.68-11.63-.08-1.32-.17-2.66-.25-4h83.79l-.06.82c-.37,5.48-.73,10.66-1.15,15.92A1.65,1.65,0,0,1,255.27,255.68Zm-86.49,14.43h-.43a44,44,0,0,1-5.16-.1l-.34,0a7.74,7.74,0,0,1-6.36-8.91,7.94,7.94,0,0,1,7.87-6.77h.42a.91.91,0,0,1,.51.29c1,4.43,2,8.79,3,13.4Zm76.46,24.25c1.2-1.41,2.5-2.91,3.82-4.42a68.8,68.8,0,0,0,16.38-42.36c.17-3,.14-6,.1-8.94,0-1.2,0-2.39,0-3.58,0-3.74-1.67-5.4-5.37-5.4H171.56c-5.78,0-7,1.24-7,7v8.77c-1.27.13-2.53.31-3.77.54h-.06a16.67,16.67,0,0,0,3.68,32.92h0c1.14,0,2.28,0,3.38,0,1.51,0,2.94,0,4.34.08a2.44,2.44,0,0,1,1.68.91,60.89,60.89,0,0,0,12.06,14.76H121.53V207.74c.54,0,1.09-.06,1.61-.06H148c7.91,0,11.25-2.49,12.79-9.76H173l.12.57c.24,1.15.48,2.23.82,3.32A18.43,18.43,0,0,0,191,214.72c16.67.17,30.39.17,43.18,0a18.33,18.33,0,0,0,17.93-18.12c.06-5.15,0-10.39,0-15.45q0-3.85,0-7.72v-2.08l49.76.09V294.75h-57ZM243.47,195a9.78,9.78,0,0,1,0,2.23v0A10,10,0,0,1,232.42,206H192.5a9.37,9.37,0,0,1-2.05,0,9.92,9.92,0,0,1-8.89-10.81v-22.4c0-.42,0-.85.06-1.31H243.4c0,.39.06.77.06,1.14V195Zm-70.72-6-12,0c-1.86-7.43-4.94-9.62-13.05-9.62H121.42v-7.89h51.33ZM311.53,323.67a18.93,18.93,0,0,1-3.78.23H117.52a13.48,13.48,0,0,1-2,0h-.1A14.94,14.94,0,0,1,101.59,308V304l222.07,0c.07.26.13.52.19.79A15.94,15.94,0,0,1,311.53,323.67Z" fill="#341a4d"/><path d="M244,125.64a14.34,14.34,0,0,0-10.18-4.3,14.57,14.57,0,0,0-14.51,14.42V136a14.34,14.34,0,0,0,14.32,14.23h.57a14.15,14.15,0,0,0,13.95-14.31v-.1A14.3,14.3,0,0,0,244,125.64Zm-16,10.23a5.7,5.7,0,0,1,5.7-5.7H234a5.6,5.6,0,0,1,5.53,5.65,5.73,5.73,0,0,1-5.79,5.71l-.49,0A5.7,5.7,0,0,1,228,135.87Z" fill="#341a4d"/><path d="M187.79,121.29a14.44,14.44,0,0,0-14.32,14.52v.58a14.09,14.09,0,0,0,14.06,13.76h.31a14.43,14.43,0,0,0-.05-28.86Zm5.7,14.34v.45a5.52,5.52,0,0,1-5.64,5.42h-.06a5.77,5.77,0,0,1-5.67-5.84v-.08a5.57,5.57,0,0,1,1.71-3.89,5.48,5.48,0,0,1,4-1.53v0h.39A5.4,5.4,0,0,1,193.49,135.63Z" fill="#341a4d"/></svg>