<svg id="Layer_1" data-name="Layer 1" xmlns="http://www.w3.org/2000/svg" viewBox="0 0 425.2 425.2"><path d="M323.5,98.5a9.34,9.34,0,0,0-13.19.23L101.47,315a9.32,9.32,0,0,0,13.41,13L323.73,111.69A9.33,9.33,0,0,0,323.5,98.5Z" fill="#9e7aca"/><path d="M149.86,172.86a39.27,39.27,0,0,0,39.23-39.23h0A39.23,39.23,0,0,0,149.86,94.4h0a39.23,39.23,0,0,0,0,78.46Zm0-59.81h0a20.57,20.57,0,0,1,20.58,20.57h0a20.58,20.58,0,1,1-20.59-20.58Z" fill="#9e7aca"/><path d="M282.58,246.86h0a39.25,39.25,0,0,0-39.23,39.25h0a39.3,39.3,0,0,0,39.23,39.23h0a39.24,39.24,0,0,0,0-78.48Zm0,59.83h0A20.61,20.61,0,0,1,262,286.11h0a20.59,20.59,0,0,1,20.59-20.59h0a20.59,20.59,0,1,1,0,41.18Z" fill="#9e7aca"/></svg>