<svg id="Layer_1" data-name="Layer 1" xmlns="http://www.w3.org/2000/svg" viewBox="0 0 425.2 425.2"><path id="Personen-2" d="M255.5,227.47a74.46,74.46,0,1,0-85.7,0A105.44,105.44,0,0,0,108,319.65v2.92a10.52,10.52,0,0,0,10.52,10.53H306.72a10.52,10.52,0,0,0,10.53-10.53h0v-2.94h0A105.42,105.42,0,0,0,255.5,227.47Zm-133,92.18a90.58,90.58,0,0,1,65.63-83.38c2.34-.67,4.73-1.26,7.12-1.7a5.31,5.31,0,0,0,4.31-5,5.42,5.42,0,0,0-3.9-5.47,59,59,0,0,1-6.67-2.42,59.75,59.75,0,1,1,40.55,2.42,5.42,5.42,0,0,0-3.9,5.47,5.31,5.31,0,0,0,4.34,5c2.4.46,4.79,1,7.12,1.7a90.56,90.56,0,0,1,65.64,83.38Z" fill="#8769ad"/></svg>